<svg xmlns="http://www.w3.org/2000/svg" xmlns:xlink="http://www.w3.org/1999/xlink" zoomAndPan="magnify" viewBox="350 320 250 220" preserveAspectRatio="xMidYMid meet" version="1.0"><defs><clipPath id="e5662587a9"><path d="M 490.027344 441.1875 L 576.277344 441.1875 L 576.277344 527.4375 L 490.027344 527.4375 Z M 490.027344 441.1875 " clip-rule="nonzero"/></clipPath><clipPath id="7c3b28dce0"><path d="M 368.617188 441.1875 L 446.617188 441.1875 L 446.617188 522.9375 L 368.617188 522.9375 Z M 368.617188 441.1875 " clip-rule="nonzero"/></clipPath><clipPath id="ca9ce634dd"><path d="M 432.808594 332 L 547.558594 332 L 547.558594 428.742188 L 432.808594 428.742188 Z M 432.808594 332 " clip-rule="nonzero"/></clipPath></defs><g clip-path="url(#e5662587a9)"><path fill="#000000" d="M 562.035156 484.433594 L 562.035156 452.859375 C 562.035156 452.386719 561.722656 451.96875 561.269531 451.832031 L 526.351562 441.234375 C 526.152344 441.175781 525.933594 441.175781 525.730469 441.234375 L 490.8125 451.832031 C 490.359375 451.96875 490.050781 452.386719 490.050781 452.859375 L 490.050781 490.636719 C 490.050781 494.339844 490.90625 497.558594 492.746094 500.769531 C 499.109375 511.863281 510.789062 521.304688 525.636719 527.359375 C 525.765625 527.410156 525.902344 527.4375 526.042969 527.4375 C 526.179688 527.4375 526.316406 527.410156 526.449219 527.359375 C 532.933594 524.714844 538.828125 521.425781 543.980469 517.582031 C 547.410156 520.640625 551.925781 522.5 556.871094 522.5 C 567.558594 522.5 576.253906 513.804688 576.253906 503.117188 C 576.253906 494.214844 570.222656 486.699219 562.035156 484.429688 Z M 526.042969 525.203125 C 511.828125 519.324219 500.679688 510.28125 494.609375 499.699219 C 492.941406 496.789062 492.195312 493.996094 492.195312 490.636719 L 492.195312 453.65625 L 526.042969 443.382812 L 559.886719 453.65625 L 559.886719 483.964844 C 558.902344 483.8125 557.894531 483.730469 556.867188 483.730469 C 556.539062 483.730469 556.210938 483.738281 555.886719 483.753906 L 555.886719 457.417969 C 555.886719 456.945312 555.574219 456.53125 555.121094 456.390625 L 526.351562 447.660156 C 526.152344 447.597656 525.933594 447.597656 525.730469 447.660156 L 496.960938 456.390625 C 496.507812 456.53125 496.199219 456.945312 496.199219 457.417969 L 496.199219 490.640625 C 496.199219 493.257812 496.777344 495.441406 498.082031 497.710938 C 500.917969 502.65625 504.941406 507.234375 510.042969 511.316406 C 514.550781 514.929688 519.789062 518.074219 525.605469 520.664062 C 525.746094 520.726562 525.894531 520.753906 526.042969 520.753906 C 526.191406 520.753906 526.339844 520.726562 526.476562 520.664062 C 531.464844 518.441406 536.039062 515.804688 540.089844 512.8125 C 540.761719 513.972656 541.554688 515.058594 542.445312 516.050781 C 537.601562 519.625 532.089844 522.699219 526.042969 525.203125 Z M 553.738281 483.984375 C 544.53125 485.484375 537.484375 493.492188 537.484375 503.117188 C 537.484375 505.871094 538.0625 508.496094 539.105469 510.871094 C 535.222656 513.769531 530.835938 516.335938 526.039062 518.503906 C 514.226562 513.15625 504.96875 505.40625 499.941406 496.640625 C 498.820312 494.6875 498.34375 492.890625 498.34375 490.636719 L 498.34375 458.214844 L 526.039062 449.808594 L 553.734375 458.214844 L 553.734375 483.984375 Z M 556.867188 520.355469 C 547.363281 520.355469 539.628906 512.621094 539.628906 503.117188 C 539.628906 493.613281 547.363281 485.878906 556.867188 485.878906 C 566.371094 485.878906 574.105469 493.613281 574.105469 503.117188 C 574.105469 512.621094 566.371094 520.355469 556.867188 520.355469 Z M 563.320312 498.941406 L 562.269531 498.941406 L 562.269531 495.867188 C 562.269531 492.890625 559.84375 490.464844 556.867188 490.464844 C 553.890625 490.464844 551.46875 492.890625 551.46875 495.867188 L 551.46875 498.941406 L 550.417969 498.941406 C 548.863281 498.941406 547.597656 500.207031 547.597656 501.761719 L 547.597656 511.703125 C 547.597656 513.257812 548.863281 514.523438 550.417969 514.523438 L 563.316406 514.523438 C 564.871094 514.523438 566.136719 513.257812 566.136719 511.703125 L 566.136719 501.761719 C 566.136719 500.207031 564.871094 498.941406 563.316406 498.941406 Z M 553.617188 495.863281 C 553.617188 494.070312 555.074219 492.613281 556.871094 492.613281 C 558.664062 492.613281 560.121094 494.070312 560.121094 495.863281 L 560.121094 498.9375 L 553.617188 498.9375 Z M 563.988281 511.699219 C 563.988281 512.066406 563.683594 512.375 563.316406 512.375 L 550.417969 512.375 C 550.050781 512.375 549.742188 512.066406 549.742188 511.699219 L 549.742188 501.757812 C 549.742188 501.394531 550.050781 501.085938 550.417969 501.085938 L 563.316406 501.085938 C 563.683594 501.085938 563.988281 501.394531 563.988281 501.757812 Z M 515.335938 478.425781 C 514.453125 477.539062 513.273438 477.054688 512.019531 477.054688 C 510.761719 477.054688 509.582031 477.539062 508.699219 478.425781 C 506.867188 480.253906 506.867188 483.234375 508.699219 485.0625 L 518.046875 494.410156 C 518.960938 495.328125 520.167969 495.789062 521.367188 495.785156 C 522.566406 495.785156 523.765625 495.328125 524.679688 494.417969 L 543.382812 475.714844 C 545.214844 473.882812 545.214844 470.90625 543.382812 469.074219 C 542.5 468.191406 541.320312 467.703125 540.0625 467.703125 C 538.808594 467.703125 537.628906 468.191406 536.742188 469.074219 L 521.367188 484.453125 Z M 538.261719 470.59375 C 538.742188 470.117188 539.382812 469.855469 540.066406 469.855469 C 540.75 469.855469 541.386719 470.117188 541.863281 470.59375 C 542.859375 471.585938 542.859375 473.203125 541.863281 474.195312 L 523.160156 492.902344 C 522.171875 493.890625 520.558594 493.886719 519.566406 492.894531 L 510.21875 483.546875 C 509.226562 482.554688 509.226562 480.9375 510.21875 479.945312 C 510.695312 479.464844 511.335938 479.203125 512.019531 479.203125 C 512.699219 479.203125 513.339844 479.464844 513.820312 479.945312 L 520.609375 486.734375 C 521.027344 487.152344 521.707031 487.152344 522.125 486.734375 L 538.261719 470.597656 Z M 557.941406 505.066406 L 557.941406 508.394531 C 557.941406 508.988281 557.460938 509.46875 556.867188 509.46875 C 556.273438 509.46875 555.792969 508.988281 555.792969 508.394531 L 555.792969 505.066406 C 555.792969 504.476562 556.273438 503.992188 556.867188 503.992188 C 557.460938 503.992188 557.941406 504.476562 557.941406 505.066406 Z M 557.941406 505.066406 " fill-opacity="1" fill-rule="nonzero"/></g><g clip-path="url(#7c3b28dce0)"><path fill="#000000" d="M 446.542969 482.035156 C 446.542969 491.125 446.480469 500.21875 446.578125 509.3125 C 446.613281 512.265625 445.328125 514.242188 443.003906 515.789062 C 438.980469 518.46875 434.410156 519.714844 429.78125 520.707031 C 419.355469 522.9375 408.796875 523.375 398.195312 522.554688 C 390.839844 521.984375 383.570312 520.875 376.660156 518.097656 C 374.351562 517.171875 372.136719 516.074219 370.386719 514.226562 C 369.277344 513.054688 368.671875 511.703125 368.671875 510.046875 C 368.679688 491.582031 368.703125 473.117188 368.625 454.652344 C 368.613281 451.84375 369.796875 449.910156 371.949219 448.410156 C 375.144531 446.175781 378.78125 444.957031 382.515625 444.019531 C 392.933594 441.410156 403.527344 440.828125 414.210938 441.378906 C 420.929688 441.726562 427.578125 442.574219 434.074219 444.398438 C 437.234375 445.289062 440.320312 446.382812 443.074219 448.25 C 445.375 449.808594 446.644531 451.800781 446.609375 454.757812 C 446.503906 463.847656 446.570312 472.941406 446.570312 482.035156 C 446.5625 482.035156 446.550781 482.035156 446.542969 482.035156 Z M 444.449219 476.664062 C 442.511719 477.703125 440.667969 478.902344 438.667969 479.726562 C 432.054688 482.457031 425.058594 483.597656 417.992188 484.1875 C 407.277344 485.085938 396.59375 484.785156 386.03125 482.558594 C 381.699219 481.640625 377.421875 480.519531 373.554688 478.253906 C 372.613281 477.703125 371.742188 477.042969 370.824219 476.425781 C 370.785156 476.539062 370.75 476.59375 370.75 476.652344 C 370.765625 481.492188 370.738281 486.332031 370.84375 491.171875 C 370.859375 491.988281 371.277344 492.933594 371.808594 493.578125 C 373.390625 495.507812 375.660156 496.449219 377.921875 497.289062 C 384.652344 499.792969 391.679688 500.820312 398.789062 501.34375 C 404.628906 501.769531 410.480469 501.824219 416.328125 501.375 C 422.726562 500.882812 429.050781 499.964844 435.195312 498.023438 C 437.617188 497.253906 439.972656 496.324219 442.074219 494.851562 C 443.632812 493.761719 444.554688 492.40625 444.480469 490.34375 C 444.359375 486.777344 444.445312 483.207031 444.445312 479.640625 C 444.445312 478.597656 444.445312 477.554688 444.445312 476.667969 Z M 444.390625 495.644531 C 441.78125 497.832031 438.796875 499.078125 435.695312 500.050781 C 427.570312 502.59375 419.191406 503.546875 410.722656 503.753906 C 404.28125 503.910156 397.847656 503.679688 391.46875 502.683594 C 384.199219 501.546875 376.980469 500.242188 370.824219 495.753906 C 370.804688 495.8125 370.761719 495.867188 370.761719 495.925781 C 370.773438 500.578125 370.8125 505.234375 370.792969 509.886719 C 370.789062 511.09375 371.121094 512.179688 372.050781 512.855469 C 373.589844 513.972656 375.160156 515.148438 376.890625 515.878906 C 384.285156 518.996094 392.125 520.160156 400.058594 520.492188 C 405.613281 520.726562 411.195312 520.59375 416.753906 520.359375 C 423.296875 520.085938 429.722656 518.929688 435.949219 516.84375 C 438.539062 515.976562 441.054688 514.929688 443.09375 513.011719 C 443.910156 512.242188 444.453125 511.335938 444.453125 510.164062 C 444.449219 505.476562 444.457031 500.792969 444.457031 496.105469 C 444.457031 495.996094 444.425781 495.882812 444.390625 495.644531 Z M 444.445312 457.65625 C 443.65625 458.203125 443.011719 458.6875 442.335938 459.117188 C 439.511719 460.917969 436.367188 461.960938 433.167969 462.808594 C 426.382812 464.605469 419.449219 465.382812 412.441406 465.65625 C 403.25 466.015625 394.128906 465.503906 385.125 463.550781 C 380.050781 462.449219 375.070312 461.039062 370.832031 457.683594 C 370.820312 457.863281 370.796875 458.007812 370.796875 458.152344 C 370.800781 462.527344 370.855469 466.902344 370.785156 471.273438 C 370.761719 472.898438 371.398438 474.101562 372.566406 475.070312 C 373.320312 475.695312 374.164062 476.246094 375.027344 476.714844 C 378.378906 478.523438 382.019531 479.507812 385.703125 480.339844 C 391.457031 481.648438 397.300781 482.214844 403.1875 482.421875 C 413.15625 482.777344 423.03125 482.101562 432.722656 479.5625 C 435.988281 478.707031 439.175781 477.609375 441.992188 475.65625 C 443.613281 474.53125 444.550781 473.121094 444.484375 470.996094 C 444.363281 467.246094 444.445312 463.488281 444.445312 459.734375 C 444.445312 459.066406 444.445312 458.394531 444.445312 457.65625 Z M 407.421875 463.71875 C 412.476562 463.675781 418.527344 463.425781 424.53125 462.464844 C 429.425781 461.679688 434.285156 460.726562 438.820312 458.660156 C 440.453125 457.914062 441.984375 456.84375 443.371094 455.6875 C 444.863281 454.445312 444.828125 452.902344 443.507812 451.457031 C 442.96875 450.871094 442.335938 450.351562 441.6875 449.890625 C 439.382812 448.246094 436.722656 447.40625 434.054688 446.601562 C 427.828125 444.726562 421.429688 443.910156 414.957031 443.585938 C 404.726562 443.078125 394.539062 443.355469 384.507812 445.703125 C 380.652344 446.605469 376.800781 447.609375 373.488281 449.917969 C 372.597656 450.539062 371.839844 451.40625 371.175781 452.28125 C 370.59375 453.050781 370.589844 454.039062 371.222656 454.800781 C 371.945312 455.667969 372.695312 456.644531 373.660156 457.148438 C 375.863281 458.308594 378.132812 459.4375 380.5 460.167969 C 388.929688 462.769531 397.628906 463.585938 407.421875 463.71875 Z M 407.421875 463.71875 " fill-opacity="1" fill-rule="nonzero"/></g><path fill="#000000" d="M 439.953125 469.34375 C 439.953125 469.667969 439.894531 469.980469 439.769531 470.277344 C 439.648438 470.574219 439.472656 470.839844 439.242188 471.066406 C 439.015625 471.292969 438.753906 471.46875 438.457031 471.59375 C 438.160156 471.71875 437.847656 471.777344 437.527344 471.777344 C 437.207031 471.777344 436.894531 471.71875 436.597656 471.59375 C 436.300781 471.46875 436.039062 471.292969 435.808594 471.066406 C 435.582031 470.839844 435.40625 470.574219 435.285156 470.277344 C 435.160156 469.980469 435.097656 469.667969 435.097656 469.34375 C 435.097656 469.023438 435.160156 468.710938 435.285156 468.414062 C 435.40625 468.117188 435.582031 467.851562 435.808594 467.625 C 436.039062 467.398438 436.300781 467.222656 436.597656 467.097656 C 436.894531 466.972656 437.207031 466.914062 437.527344 466.914062 C 437.847656 466.914062 438.160156 466.972656 438.457031 467.097656 C 438.753906 467.222656 439.015625 467.398438 439.242188 467.625 C 439.472656 467.851562 439.648438 468.117188 439.769531 468.414062 C 439.894531 468.710938 439.953125 469.023438 439.953125 469.34375 Z M 439.953125 469.34375 " fill-opacity="1" fill-rule="nonzero"/><path fill="#000000" d="M 439.953125 488.152344 C 439.953125 488.476562 439.894531 488.785156 439.769531 489.082031 C 439.648438 489.382812 439.472656 489.644531 439.242188 489.871094 C 439.015625 490.101562 438.753906 490.277344 438.457031 490.398438 C 438.160156 490.523438 437.847656 490.585938 437.527344 490.585938 C 437.207031 490.585938 436.894531 490.523438 436.597656 490.398438 C 436.300781 490.277344 436.039062 490.101562 435.808594 489.871094 C 435.582031 489.644531 435.40625 489.382812 435.285156 489.082031 C 435.160156 488.785156 435.097656 488.476562 435.097656 488.152344 C 435.097656 487.828125 435.160156 487.519531 435.285156 487.222656 C 435.40625 486.921875 435.582031 486.660156 435.808594 486.429688 C 436.039062 486.203125 436.300781 486.027344 436.597656 485.902344 C 436.894531 485.78125 437.207031 485.71875 437.527344 485.71875 C 437.847656 485.71875 438.160156 485.78125 438.457031 485.902344 C 438.753906 486.027344 439.015625 486.203125 439.242188 486.429688 C 439.472656 486.660156 439.648438 486.921875 439.769531 487.222656 C 439.894531 487.519531 439.953125 487.828125 439.953125 488.152344 Z M 439.953125 488.152344 " fill-opacity="1" fill-rule="nonzero"/><path fill="#000000" d="M 439.953125 508.128906 C 439.953125 508.453125 439.894531 508.761719 439.769531 509.0625 C 439.648438 509.359375 439.472656 509.621094 439.242188 509.851562 C 439.015625 510.078125 438.753906 510.253906 438.457031 510.378906 C 438.160156 510.5 437.847656 510.5625 437.527344 510.5625 C 437.207031 510.5625 436.894531 510.5 436.597656 510.378906 C 436.300781 510.253906 436.039062 510.078125 435.808594 509.851562 C 435.582031 509.621094 435.40625 509.359375 435.285156 509.0625 C 435.160156 508.761719 435.097656 508.453125 435.097656 508.128906 C 435.097656 507.808594 435.160156 507.496094 435.285156 507.199219 C 435.40625 506.902344 435.582031 506.636719 435.808594 506.410156 C 436.039062 506.179688 436.300781 506.003906 436.597656 505.882812 C 436.894531 505.757812 437.207031 505.695312 437.527344 505.695312 C 437.847656 505.695312 438.160156 505.757812 438.457031 505.882812 C 438.753906 506.003906 439.015625 506.179688 439.242188 506.410156 C 439.472656 506.636719 439.648438 506.902344 439.769531 507.199219 C 439.894531 507.496094 439.953125 507.808594 439.953125 508.128906 Z M 439.953125 508.128906 " fill-opacity="1" fill-rule="nonzero"/><path stroke-linecap="butt" transform="matrix(-0.054876, -0.74799, 0.74799, -0.054876, 514.022149, 451.160413)" fill="none" stroke-linejoin="miter" d="M -0.000296593 2.001854 L 58.087683 2.002036 " stroke="#000000" stroke-width="4" stroke-opacity="1" stroke-miterlimit="4"/><path stroke-linecap="round" transform="matrix(-0.054876, -0.74799, 0.74799, -0.054876, 514.022149, 451.160413)" fill-opacity="1" fill="#000000" fill-rule="nonzero" stroke-linejoin="round" d="M 59.091875 -3.997863 L 67.09118 1.999338 L 59.089181 7.997635 Z M 59.091875 -3.997863 " stroke="#000000" stroke-width="4" stroke-opacity="1" stroke-miterlimit="4"/><path stroke-linecap="butt" transform="matrix(0.748733, 0.0435794, -0.0435794, 0.748733, 446.589499, 480.415211)" fill="none" stroke-linejoin="miter" d="M 0.00219199 2.001724 L 47.128464 1.997782 " stroke="#000000" stroke-width="4" stroke-opacity="1" stroke-miterlimit="4"/><path stroke-linecap="round" transform="matrix(0.748733, 0.0435794, -0.0435794, 0.748733, 446.589499, 480.415211)" fill-opacity="1" fill="#000000" fill-rule="nonzero" stroke-linejoin="round" d="M 48.130745 -3.99767 L 56.128225 2.00089 L 48.130066 8.001811 Z M 48.130745 -3.99767 " stroke="#000000" stroke-width="4" stroke-opacity="1" stroke-miterlimit="4"/><g clip-path="url(#ca9ce634dd)"><path fill="#333333" d="M 468.984375 375.847656 C 473.660156 375.847656 477.894531 377.734375 480.960938 380.785156 C 484.023438 383.832031 485.921875 388.046875 485.921875 392.699219 C 485.921875 397.355469 484.023438 401.566406 480.960938 404.617188 C 477.894531 407.667969 473.660156 409.550781 468.984375 409.550781 C 464.304688 409.550781 460.070312 407.667969 457.007812 404.617188 C 453.941406 401.566406 452.042969 397.355469 452.042969 392.699219 C 452.042969 388.046875 453.941406 383.832031 457.007812 380.785156 C 460.070312 377.734375 464.304688 375.847656 468.984375 375.847656 Z M 501.75 349.542969 L 499.519531 345.882812 C 499.082031 345.164062 498.792969 344.359375 498.792969 343.570312 C 498.792969 342.785156 499.054688 342.039062 499.6875 341.410156 L 502.589844 338.519531 C 503.222656 337.890625 503.976562 337.628906 504.765625 337.628906 C 505.554688 337.628906 506.363281 337.917969 507.085938 338.351562 L 510.765625 340.570312 C 511.285156 340.304688 511.8125 340.0625 512.347656 339.839844 C 512.890625 339.617188 513.441406 339.417969 513.992188 339.242188 L 515.011719 335.085938 C 515.214844 334.269531 515.582031 333.5 516.144531 332.941406 C 516.703125 332.386719 517.417969 332.039062 518.3125 332.039062 L 522.417969 332.039062 C 523.3125 332.039062 524.03125 332.386719 524.589844 332.941406 C 525.148438 333.5 525.519531 334.269531 525.71875 335.085938 L 526.742188 339.238281 C 527.300781 339.417969 527.847656 339.617188 528.378906 339.835938 C 528.917969 340.058594 529.445312 340.304688 529.96875 340.570312 L 533.648438 338.351562 C 534.367188 337.917969 535.175781 337.628906 535.96875 337.628906 C 536.757812 337.628906 537.511719 337.890625 538.140625 338.519531 L 541.046875 341.410156 C 541.679688 342.039062 541.941406 342.785156 541.941406 343.570312 C 541.941406 344.359375 541.652344 345.164062 541.214844 345.882812 L 538.984375 349.539062 C 539.253906 350.058594 539.496094 350.582031 539.71875 351.117188 C 539.945312 351.65625 540.144531 352.203125 540.320312 352.75 L 544.496094 353.769531 C 545.316406 353.96875 546.09375 354.335938 546.652344 354.894531 C 547.210938 355.449219 547.558594 356.160156 547.558594 357.050781 L 547.558594 361.136719 C 547.558594 362.027344 547.210938 362.742188 546.652344 363.292969 C 546.09375 363.855469 545.316406 364.222656 544.496094 364.421875 L 540.324219 365.4375 C 540.144531 365.992188 539.945312 366.535156 539.722656 367.066406 C 539.5 367.601562 539.253906 368.128906 538.984375 368.648438 L 541.214844 372.308594 C 541.652344 373.027344 541.941406 373.828125 541.941406 374.617188 C 541.941406 375.402344 541.679688 376.148438 541.046875 376.78125 L 538.140625 379.667969 C 537.511719 380.296875 536.757812 380.558594 535.96875 380.558594 C 535.175781 380.558594 534.367188 380.273438 533.648438 379.835938 L 529.96875 377.617188 C 529.449219 377.882812 528.921875 378.128906 528.386719 378.347656 C 527.839844 378.574219 527.292969 378.773438 526.742188 378.945312 L 525.71875 383.101562 C 525.519531 383.917969 525.152344 384.691406 524.589844 385.25 C 524.03125 385.804688 523.3125 386.148438 522.421875 386.148438 L 518.3125 386.148438 C 517.417969 386.148438 516.703125 385.804688 516.144531 385.25 C 515.582031 384.691406 515.214844 383.917969 515.011719 383.101562 L 513.992188 378.949219 C 513.433594 378.773438 512.886719 378.574219 512.355469 378.351562 C 511.816406 378.132812 511.289062 377.886719 510.765625 377.617188 L 507.085938 379.835938 C 506.367188 380.273438 505.558594 380.558594 504.765625 380.558594 C 503.976562 380.558594 503.222656 380.296875 502.59375 379.667969 L 499.6875 376.78125 C 499.054688 376.152344 498.792969 375.402344 498.792969 374.617188 C 498.792969 373.828125 499.082031 373.023438 499.519531 372.308594 L 501.75 368.648438 C 501.480469 368.132812 501.238281 367.605469 501.015625 367.070312 C 500.789062 366.53125 500.589844 365.984375 500.414062 365.4375 L 496.238281 364.421875 C 495.417969 364.21875 494.640625 363.851562 494.082031 363.292969 C 493.523438 362.738281 493.175781 362.027344 493.175781 361.136719 L 493.175781 357.050781 C 493.175781 356.160156 493.523438 355.449219 494.082031 354.894531 C 494.640625 354.335938 495.417969 353.96875 496.238281 353.769531 L 500.410156 352.75 C 500.589844 352.195312 500.789062 351.652344 501.011719 351.121094 C 501.234375 350.585938 501.480469 350.058594 501.75 349.542969 Z M 501.511719 344.679688 L 504.058594 348.855469 C 504.296875 349.207031 504.332031 349.675781 504.113281 350.070312 C 503.765625 350.6875 503.453125 351.335938 503.167969 352.011719 C 502.894531 352.671875 502.660156 353.34375 502.464844 354.035156 L 502.460938 354.035156 C 502.351562 354.425781 502.039062 354.746094 501.613281 354.847656 L 496.789062 356.023438 C 496.363281 356.128906 495.980469 356.300781 495.734375 356.542969 C 495.601562 356.675781 495.519531 356.84375 495.519531 357.050781 L 495.519531 361.136719 C 495.519531 361.34375 495.601562 361.515625 495.734375 361.648438 C 495.980469 361.890625 496.363281 362.058594 496.789062 362.164062 L 501.554688 363.324219 C 501.976562 363.40625 502.339844 363.714844 502.464844 364.15625 C 502.664062 364.847656 502.898438 365.527344 503.171875 366.1875 C 503.445312 366.84375 503.757812 367.488281 504.113281 368.117188 L 504.109375 368.117188 C 504.308594 368.46875 504.3125 368.914062 504.089844 369.28125 L 501.511719 373.507812 C 501.285156 373.882812 501.136719 374.273438 501.136719 374.617188 C 501.136719 374.808594 501.195312 374.984375 501.34375 375.132812 L 504.246094 378.019531 C 504.394531 378.167969 504.574219 378.226562 504.765625 378.226562 C 505.109375 378.226562 505.503906 378.078125 505.878906 377.851562 L 510.074219 375.320312 C 510.429688 375.082031 510.902344 375.046875 511.296875 375.265625 C 511.917969 375.609375 512.570312 375.925781 513.25 376.203125 C 513.910156 376.476562 514.585938 376.710938 515.28125 376.90625 L 515.28125 376.910156 C 515.671875 377.019531 515.996094 377.332031 516.097656 377.753906 L 517.28125 382.554688 C 517.386719 382.980469 517.558594 383.359375 517.800781 383.601562 C 517.933594 383.734375 518.105469 383.816406 518.3125 383.816406 L 522.417969 383.816406 C 522.628906 383.816406 522.796875 383.734375 522.933594 383.601562 C 523.175781 383.359375 523.347656 382.980469 523.453125 382.554688 L 524.621094 377.808594 C 524.699219 377.390625 525.011719 377.03125 525.453125 376.90625 C 526.152344 376.710938 526.832031 376.472656 527.496094 376.199219 C 528.15625 375.929688 528.804688 375.617188 529.433594 375.265625 L 529.4375 375.269531 C 529.789062 375.074219 530.234375 375.066406 530.605469 375.289062 L 534.855469 377.851562 C 535.230469 378.078125 535.625 378.230469 535.96875 378.230469 C 536.160156 378.230469 536.339844 378.167969 536.484375 378.019531 L 539.390625 375.132812 C 539.535156 374.984375 539.597656 374.808594 539.597656 374.617188 C 539.597656 374.273438 539.449219 373.882812 539.21875 373.507812 L 536.675781 369.332031 C 536.4375 368.980469 536.398438 368.511719 536.621094 368.117188 C 536.96875 367.5 537.28125 366.851562 537.5625 366.175781 C 537.835938 365.519531 538.074219 364.84375 538.269531 364.15625 L 538.273438 364.15625 C 538.382812 363.765625 538.695312 363.441406 539.121094 363.339844 L 543.945312 362.164062 C 544.371094 362.058594 544.753906 361.890625 544.996094 361.648438 C 545.132812 361.515625 545.214844 361.34375 545.214844 361.136719 L 545.214844 357.050781 C 545.214844 356.84375 545.132812 356.675781 544.996094 356.542969 C 544.753906 356.300781 544.371094 356.128906 543.945312 356.023438 L 539.179688 354.863281 C 538.753906 354.78125 538.394531 354.472656 538.269531 354.035156 C 538.070312 353.339844 537.835938 352.660156 537.558594 352 C 537.289062 351.34375 536.976562 350.699219 536.621094 350.070312 C 536.425781 349.71875 536.421875 349.273438 536.644531 348.90625 L 539.21875 344.679688 C 539.449219 344.304688 539.597656 343.914062 539.597656 343.570312 C 539.597656 343.382812 539.535156 343.203125 539.390625 343.054688 L 536.484375 340.167969 C 536.339844 340.019531 536.160156 339.960938 535.96875 339.960938 C 535.625 339.960938 535.230469 340.109375 534.855469 340.335938 L 530.65625 342.867188 C 530.304688 343.105469 529.832031 343.144531 529.433594 342.921875 C 528.8125 342.578125 528.164062 342.265625 527.484375 341.984375 C 526.824219 341.710938 526.144531 341.476562 525.453125 341.28125 C 525.0625 341.167969 524.738281 340.859375 524.632812 340.433594 L 523.453125 335.632812 C 523.347656 335.210938 523.175781 334.828125 522.933594 334.585938 C 522.796875 334.453125 522.628906 334.371094 522.417969 334.371094 L 518.3125 334.371094 C 518.105469 334.371094 517.933594 334.453125 517.800781 334.585938 C 517.558594 334.828125 517.386719 335.210938 517.28125 335.632812 L 516.113281 340.378906 C 516.035156 340.796875 515.722656 341.160156 515.28125 341.28125 C 514.582031 341.480469 513.898438 341.714844 513.234375 341.988281 C 512.578125 342.257812 511.929688 342.570312 511.296875 342.921875 C 510.945312 343.117188 510.496094 343.121094 510.128906 342.898438 L 505.878906 340.335938 C 505.503906 340.109375 505.109375 339.960938 504.765625 339.960938 C 504.574219 339.960938 504.394531 340.019531 504.246094 340.167969 L 501.34375 343.054688 C 501.195312 343.203125 501.136719 343.382812 501.136719 343.570312 C 501.136719 343.914062 501.285156 344.304688 501.511719 344.679688 Z M 520.367188 344.78125 C 516.394531 344.78125 512.796875 346.382812 510.195312 348.972656 C 507.589844 351.5625 505.980469 355.140625 505.980469 359.09375 C 505.980469 363.046875 507.589844 366.625 510.195312 369.214844 C 512.796875 371.804688 516.394531 373.40625 520.367188 373.40625 C 524.339844 373.40625 527.9375 371.804688 530.539062 369.214844 C 533.144531 366.625 534.753906 363.046875 534.753906 359.09375 C 534.753906 355.140625 533.144531 351.5625 530.539062 348.972656 C 527.9375 346.382812 524.339844 344.78125 520.367188 344.78125 Z M 528.882812 350.621094 C 526.703125 348.453125 523.691406 347.109375 520.367188 347.109375 C 517.039062 347.109375 514.03125 348.453125 511.851562 350.621094 C 509.671875 352.789062 508.324219 355.785156 508.324219 359.09375 C 508.324219 362.402344 509.671875 365.398438 511.851562 367.566406 C 514.03125 369.738281 517.039062 371.078125 520.367188 371.078125 C 523.691406 371.078125 526.703125 369.738281 528.882812 367.566406 C 531.0625 365.398438 532.410156 362.402344 532.410156 359.09375 C 532.410156 355.785156 531.0625 352.789062 528.882812 350.621094 Z M 444.398438 379.835938 C 444.003906 380.585938 443.640625 381.351562 443.316406 382.128906 C 442.996094 382.902344 442.707031 383.691406 442.453125 384.5 L 436.617188 385.925781 C 435.582031 386.175781 434.605469 386.636719 433.90625 387.332031 C 433.230469 388.007812 432.808594 388.875 432.808594 389.953125 L 432.808594 395.449219 C 432.808594 396.527344 433.230469 397.394531 433.90625 398.066406 C 434.605469 398.765625 435.582031 399.222656 436.617188 399.476562 L 442.457031 400.898438 C 442.707031 401.699219 442.996094 402.492188 443.320312 403.28125 C 443.644531 404.054688 444.003906 404.820312 444.398438 405.566406 L 441.28125 410.683594 C 440.730469 411.589844 440.367188 412.601562 440.367188 413.582031 C 440.367188 414.535156 440.683594 415.445312 441.449219 416.207031 L 445.355469 420.09375 C 446.125 420.855469 447.035156 421.171875 447.992188 421.171875 C 448.984375 421.171875 450 420.8125 450.910156 420.261719 L 456.054688 417.160156 C 456.808594 417.554688 457.574219 417.914062 458.359375 418.238281 C 459.132812 418.558594 459.929688 418.84375 460.742188 419.09375 L 462.171875 424.902344 C 462.425781 425.933594 462.890625 426.902344 463.589844 427.601562 C 464.265625 428.273438 465.136719 428.691406 466.222656 428.691406 L 471.746094 428.691406 C 472.828125 428.691406 473.699219 428.273438 474.375 427.601562 C 475.078125 426.902344 475.539062 425.933594 475.792969 424.902344 L 477.222656 419.09375 C 478.027344 418.84375 478.824219 418.558594 479.617188 418.230469 C 480.394531 417.910156 481.164062 417.554688 481.914062 417.160156 L 487.058594 420.261719 C 487.96875 420.8125 488.984375 421.171875 489.972656 421.171875 C 490.929688 421.171875 491.84375 420.855469 492.609375 420.09375 L 496.515625 416.207031 C 497.28125 415.445312 497.601562 414.535156 497.601562 413.582031 C 497.601562 412.601562 497.238281 411.589844 496.683594 410.683594 L 493.566406 405.566406 C 493.964844 404.816406 494.324219 404.050781 494.648438 403.273438 C 494.972656 402.5 495.261719 401.707031 495.511719 400.898438 L 501.347656 399.476562 C 502.382812 399.222656 503.359375 398.761719 504.0625 398.066406 C 504.738281 397.394531 505.160156 396.527344 505.160156 395.449219 L 505.160156 389.953125 C 505.160156 388.875 504.738281 388.007812 504.0625 387.332031 C 503.359375 386.636719 502.382812 386.175781 501.347656 385.925781 L 495.511719 384.5 C 495.261719 383.703125 494.972656 382.90625 494.644531 382.121094 C 494.324219 381.34375 493.964844 380.582031 493.566406 379.832031 L 496.683594 374.71875 C 497.238281 373.8125 497.601562 372.800781 497.601562 371.816406 C 497.601562 370.863281 497.28125 369.957031 496.515625 369.191406 L 492.609375 365.304688 C 491.84375 364.542969 490.929688 364.226562 489.972656 364.226562 C 488.984375 364.226562 487.96875 364.589844 487.058594 365.136719 L 481.914062 368.242188 C 481.160156 367.84375 480.390625 367.484375 479.609375 367.164062 C 478.832031 366.84375 478.035156 366.554688 477.222656 366.304688 L 475.792969 360.5 C 475.539062 359.46875 475.078125 358.496094 474.378906 357.800781 C 473.699219 357.125 472.828125 356.707031 471.746094 356.707031 L 466.222656 356.707031 C 465.136719 356.707031 464.265625 357.125 463.589844 357.800781 C 462.890625 358.496094 462.425781 359.46875 462.171875 360.5 L 460.742188 366.308594 C 459.941406 366.554688 459.140625 366.84375 458.351562 367.167969 C 457.570312 367.488281 456.804688 367.847656 456.050781 368.238281 L 450.910156 365.136719 C 450 364.589844 448.984375 364.226562 447.996094 364.226562 C 447.039062 364.226562 446.125 364.542969 445.355469 365.304688 L 441.453125 369.191406 C 440.683594 369.957031 440.367188 370.863281 440.367188 371.816406 C 440.367188 372.800781 440.730469 373.808594 441.28125 374.71875 Z M 443.277344 373.515625 L 446.710938 379.152344 C 446.949219 379.503906 446.984375 379.972656 446.765625 380.367188 C 446.289062 381.214844 445.859375 382.101562 445.476562 383.019531 C 445.101562 383.917969 444.777344 384.839844 444.507812 385.785156 C 444.398438 386.175781 444.082031 386.496094 443.660156 386.597656 L 437.167969 388.183594 C 436.527344 388.339844 435.945312 388.601562 435.5625 388.980469 C 435.308594 389.234375 435.148438 389.554688 435.148438 389.953125 L 435.148438 395.449219 C 435.148438 395.84375 435.308594 396.167969 435.5625 396.417969 C 435.945312 396.800781 436.527344 397.0625 437.167969 397.21875 L 443.601562 398.789062 C 444.023438 398.867188 444.386719 399.175781 444.511719 399.617188 C 444.78125 400.5625 445.105469 401.492188 445.480469 402.398438 C 445.851562 403.292969 446.28125 404.171875 446.761719 405.03125 L 446.761719 405.035156 C 446.957031 405.386719 446.964844 405.828125 446.738281 406.199219 L 443.273438 411.882812 C 442.933594 412.445312 442.707031 413.042969 442.707031 413.582031 C 442.707031 413.941406 442.824219 414.28125 443.105469 414.558594 L 447.011719 418.445312 C 447.292969 418.726562 447.632812 418.84375 447.992188 418.84375 C 448.535156 418.84375 449.136719 418.617188 449.699219 418.277344 L 455.363281 414.859375 C 455.71875 414.621094 456.191406 414.585938 456.589844 414.804688 C 457.4375 415.277344 458.328125 415.707031 459.253906 416.089844 C 460.15625 416.460938 461.082031 416.78125 462.03125 417.050781 C 462.421875 417.160156 462.746094 417.472656 462.851562 417.894531 L 464.441406 424.355469 C 464.597656 424.992188 464.863281 425.574219 465.246094 425.953125 C 465.5 426.203125 465.820312 426.363281 466.21875 426.363281 L 471.746094 426.363281 C 472.144531 426.363281 472.464844 426.207031 472.71875 425.953125 C 473.101562 425.574219 473.367188 424.992188 473.523438 424.355469 L 475.101562 417.953125 C 475.179688 417.53125 475.492188 417.171875 475.933594 417.046875 C 476.886719 416.78125 477.820312 416.457031 478.726562 416.082031 C 479.628906 415.714844 480.515625 415.289062 481.378906 414.808594 C 481.730469 414.613281 482.179688 414.605469 482.550781 414.832031 L 488.265625 418.277344 C 488.828125 418.617188 489.429688 418.84375 489.972656 418.84375 C 490.332031 418.84375 490.671875 418.726562 490.953125 418.445312 L 494.859375 414.558594 C 495.140625 414.28125 495.257812 413.941406 495.257812 413.582031 C 495.257812 413.042969 495.03125 412.445312 494.691406 411.882812 L 491.253906 406.25 C 491.015625 405.898438 490.980469 405.429688 491.199219 405.03125 C 491.675781 404.183594 492.105469 403.300781 492.488281 402.378906 C 492.863281 401.480469 493.1875 400.558594 493.457031 399.617188 C 493.566406 399.226562 493.882812 398.902344 494.308594 398.800781 L 500.796875 397.21875 C 501.4375 397.0625 502.023438 396.800781 502.402344 396.417969 C 502.65625 396.167969 502.816406 395.84375 502.816406 395.449219 L 502.816406 389.953125 C 502.816406 389.554688 502.65625 389.234375 502.402344 388.980469 C 502.023438 388.601562 501.441406 388.335938 500.796875 388.179688 L 494.363281 386.613281 C 493.941406 386.53125 493.578125 386.222656 493.453125 385.785156 C 493.183594 384.835938 492.863281 383.90625 492.484375 383.003906 C 492.113281 382.105469 491.683594 381.226562 491.203125 380.367188 C 491.007812 380.015625 491 379.570312 491.226562 379.203125 L 494.691406 373.515625 C 495.03125 372.953125 495.257812 372.355469 495.257812 371.816406 C 495.257812 371.460938 495.140625 371.121094 494.859375 370.839844 L 490.953125 366.953125 C 490.671875 366.671875 490.332031 366.558594 489.972656 366.558594 C 489.429688 366.558594 488.828125 366.78125 488.265625 367.121094 L 482.601562 370.539062 C 482.246094 370.777344 481.773438 370.8125 481.378906 370.59375 C 480.527344 370.121094 479.636719 369.691406 478.710938 369.3125 C 477.808594 368.9375 476.882812 368.617188 475.933594 368.351562 L 475.933594 368.347656 C 475.542969 368.238281 475.21875 367.925781 475.117188 367.503906 L 473.523438 361.042969 C 473.367188 360.40625 473.101562 359.828125 472.722656 359.449219 C 472.46875 359.195312 472.144531 359.039062 471.746094 359.039062 L 466.222656 359.039062 C 465.820312 359.039062 465.5 359.195312 465.246094 359.449219 C 464.863281 359.828125 464.597656 360.40625 464.441406 361.042969 L 462.863281 367.449219 C 462.785156 367.867188 462.472656 368.226562 462.03125 368.351562 C 461.078125 368.621094 460.144531 368.941406 459.238281 369.316406 C 458.335938 369.6875 457.449219 370.113281 456.585938 370.59375 L 456.585938 370.589844 C 456.234375 370.785156 455.785156 370.792969 455.414062 370.570312 L 449.703125 367.121094 C 449.136719 366.78125 448.535156 366.558594 447.992188 366.558594 C 447.632812 366.558594 447.292969 366.671875 447.011719 366.953125 L 443.105469 370.839844 C 442.824219 371.121094 442.707031 371.460938 442.707031 371.816406 C 442.707031 372.355469 442.933594 372.953125 443.277344 373.515625 Z M 479.304688 382.429688 C 476.664062 379.804688 473.011719 378.175781 468.984375 378.175781 C 464.953125 378.175781 461.300781 379.804688 458.660156 382.429688 C 456.019531 385.058594 454.386719 388.691406 454.386719 392.699219 C 454.386719 396.710938 456.019531 400.339844 458.660156 402.96875 C 461.304688 405.597656 464.953125 407.222656 468.984375 407.222656 C 473.011719 407.222656 476.664062 405.597656 479.304688 402.96875 C 481.945312 400.339844 483.578125 396.710938 483.578125 392.699219 C 483.578125 388.691406 481.945312 385.058594 479.304688 382.429688 Z M 479.304688 382.429688 " fill-opacity="1" fill-rule="evenodd"/></g></svg>