<svg xmlns="http://www.w3.org/2000/svg" xmlns:xlink="http://www.w3.org/1999/xlink"  zoomAndPan="magnify" viewBox="100 400 470 420"  preserveAspectRatio="xMidYMid meet" version="1.0"><defs><clipPath id="b665f82a07"><path d="M 188 492 L 520 492 L 520 823 L 188 823 Z M 188 492 " clip-rule="nonzero"/></clipPath><clipPath id="1246f4dec2"><path d="M 355.128906 492.417969 L 519.003906 656.289062 L 352.476562 822.8125 L 188.605469 658.941406 Z M 355.128906 492.417969 " clip-rule="nonzero"/></clipPath><clipPath id="42a425c9bb"><path d="M 13 20 L 311 20 L 311 319 L 13 319 Z M 13 20 " clip-rule="nonzero"/></clipPath><clipPath id="66a64d8d8f"><path d="M 167.128906 0.417969 L 331.003906 164.289062 L 164.476562 330.8125 L 0.605469 166.941406 Z M 167.128906 0.417969 " clip-rule="nonzero"/></clipPath><clipPath id="5a4c276b20"><path d="M 331.101562 164.390625 L 167.230469 0.515625 L 0.707031 167.039062 L 164.578125 330.914062 Z M 331.101562 164.390625 " clip-rule="nonzero"/></clipPath><clipPath id="8dbcf912a9"><path d="M 331.101562 164.390625 L 167.230469 0.515625 L 0.707031 167.039062 L 164.578125 330.914062 Z M 331.101562 164.390625 " clip-rule="nonzero"/></clipPath><clipPath id="9e065d67b1"><rect x="0" width="332" y="0" height="331"/></clipPath><clipPath id="ad7205c5ff"><path d="M 496 689.148438 L 514.761719 689.148438 L 514.761719 708 L 496 708 Z M 496 689.148438 " clip-rule="nonzero"/></clipPath><clipPath id="3a5721bebb"><path d="M 454.011719 731 L 473 731 L 473 749.898438 L 454.011719 749.898438 Z M 454.011719 731 " clip-rule="nonzero"/></clipPath></defs><g clip-path="url(#b665f82a07)"><g clip-path="url(#1246f4dec2)"><g transform="matrix(1, 0, 0, 1, 188, 492)"><g clip-path="url(#9e065d67b1)"><g clip-path="url(#42a425c9bb)"><g clip-path="url(#66a64d8d8f)"><g clip-path="url(#5a4c276b20)"><g clip-path="url(#8dbcf912a9)"><path fill="#000000" d="M 153.78125 134.363281 L 155.308594 135.828125 C 156.066406 135.507812 156.859375 135.1875 157.609375 134.882812 L 157.832031 134.792969 L 157.835938 132.859375 C 157.761719 130.921875 158.492188 129.035156 159.84375 127.683594 C 161.191406 126.332031 163.078125 125.601562 164.78125 125.675781 L 171.359375 125.527344 C 175.21875 125.609375 178.300781 128.648438 178.382812 132.394531 L 178.472656 134.609375 C 179.265625 134.890625 180.113281 135.253906 181.050781 135.71875 L 182.480469 134.230469 C 185.21875 131.492188 189.664062 131.488281 192.363281 134.1875 L 197.066406 138.75 C 199.8125 141.496094 199.890625 145.835938 197.226562 148.648438 L 195.816406 150.113281 C 196.246094 150.964844 196.632812 151.894531 196.980469 152.839844 L 199.171875 152.835938 C 203.054688 152.917969 206.191406 156.070312 206.191406 159.78125 L 206.332031 166.359375 C 206.25 170.214844 203.203125 173.304688 199.359375 173.390625 L 197.308594 173.421875 L 197.148438 173.675781 C 196.902344 174.363281 196.625 175.078125 196.246094 175.953125 L 197.230469 176.882812 L 197.660156 177.316406 C 200.460938 179.910156 200.636719 184.4375 197.871094 187.371094 L 193.371094 191.9375 C 190.550781 194.761719 186.132812 194.761719 183.367188 191.996094 L 181.832031 190.519531 C 181.007812 190.929688 180.132812 191.269531 179.332031 191.578125 L 179.289062 191.59375 L 179.320312 193.65625 C 179.316406 197.476562 176.214844 200.648438 172.28125 200.726562 L 166.046875 200.65625 C 164.175781 200.730469 162.410156 200.082031 161.066406 198.839844 C 159.765625 197.65625 158.882812 195.761719 158.804688 193.6875 L 158.777344 191.660156 C 158.097656 191.421875 157.46875 191.144531 156.867188 190.871094 C 156.640625 190.769531 156.417969 190.667969 156.023438 190.5 L 154.671875 191.851562 C 151.960938 194.707031 147.589844 194.816406 144.6875 192.074219 L 139.972656 187.503906 C 137.203125 184.730469 137.175781 180.253906 139.910156 177.519531 L 141.320312 176.113281 L 140.996094 175.429688 C 140.6875 174.785156 140.390625 174.15625 140.132812 173.480469 L 138.242188 173.414062 C 136.324219 173.492188 134.515625 172.789062 133.140625 171.433594 C 132.058594 170.183594 131.070312 168.40625 130.996094 166.476562 L 130.859375 160.183594 C 130.78125 158.199219 131.542969 156.273438 132.949219 154.90625 C 134.3125 153.570312 136.179688 152.871094 137.851562 152.976562 L 139.839844 152.972656 C 140.070312 152.210938 140.34375 151.492188 140.59375 150.984375 C 140.636719 150.851562 140.703125 150.660156 140.796875 150.4375 L 139.28125 148.984375 C 136.527344 146.230469 136.511719 141.765625 139.210938 139.066406 L 143.710938 134.429688 C 146.457031 131.683594 150.75 131.621094 153.78125 134.363281 Z M 144.988281 143.972656 L 146.414062 145.339844 C 148.535156 147.460938 149.117188 150.628906 147.789062 153.320312 L 147.605469 153.800781 C 147.335938 154.390625 147.121094 154.980469 146.9375 155.660156 C 146.050781 158.613281 143.273438 160.617188 140.273438 160.539062 L 138.433594 160.535156 L 138.550781 165.863281 L 140.324219 165.925781 C 143.46875 165.757812 146.292969 167.738281 147.144531 170.621094 C 147.308594 171.121094 147.5625 171.621094 147.8125 172.136719 L 148.214844 172.996094 C 149.582031 175.589844 149.128906 178.824219 146.972656 181.152344 L 145.65625 182.46875 L 149.566406 186.261719 L 150.964844 184.859375 C 153.105469 182.722656 156.457031 182.210938 158.710938 183.429688 C 159.128906 183.589844 159.550781 183.78125 159.988281 183.976562 C 160.460938 184.191406 160.953125 184.421875 161.582031 184.621094 C 164.351562 185.550781 166.257812 188.171875 166.335938 191.183594 L 166.363281 193.097656 L 171.746094 193.15625 L 171.71875 191.292969 C 171.640625 188.246094 173.582031 185.488281 176.652344 184.5 C 177.320312 184.25 178.066406 183.976562 178.875 183.53125 C 181.488281 182.226562 184.78125 182.777344 186.824219 184.824219 L 188.339844 186.277344 L 192.101562 182.457031 L 191.960938 182.3125 L 190.628906 181.058594 C 189.03125 179.460938 188.292969 177.320312 188.582031 175.300781 C 188.675781 174.46875 188.9375 173.65625 189.183594 173.269531 C 189.476562 172.582031 189.777344 171.828125 190.1875 170.746094 L 190.367188 170.328125 C 191.332031 167.605469 193.835938 165.863281 196.789062 165.859375 L 198.753906 165.832031 L 198.636719 160.40625 L 195.96875 160.359375 C 193.148438 160.128906 190.855469 158.347656 190.003906 155.796875 C 189.710938 154.96875 189.359375 154.082031 188.9375 153.292969 C 187.515625 150.601562 188 147.25 190.054688 145.195312 L 191.394531 143.796875 L 187.449219 139.972656 L 186.253906 141.214844 C 184.136719 143.515625 180.753906 144.113281 178.0625 142.6875 C 177.355469 142.324219 176.507812 141.917969 175.734375 141.675781 C 172.78125 140.804688 170.761719 137.980469 170.917969 135.035156 L 170.839844 133.109375 L 165.398438 133.222656 L 165.394531 134.929688 C 165.558594 138.089844 163.609375 140.910156 161.003906 141.667969 L 160.449219 141.890625 C 159.660156 142.210938 158.828125 142.550781 158.40625 142.707031 C 155.808594 144.175781 152.445312 143.660156 150.292969 141.507812 C 150.292969 141.507812 150.292969 141.507812 150.289062 141.503906 L 148.78125 140.066406 Z M 53.066406 153.195312 C 55.074219 155.207031 56.5625 157.523438 57.6875 159.96875 L 112.203125 159.910156 C 112.90625 147.996094 117.339844 136.289062 125.539062 126.675781 L 105.183594 106.320312 C 102.679688 108.035156 99.664062 109.042969 96.410156 109.042969 C 92.109375 109.046875 88.21875 107.296875 85.398438 104.476562 C 82.574219 101.65625 80.828125 97.757812 80.828125 93.460938 C 80.835938 84.867188 87.828125 77.875 96.421875 77.867188 C 105.011719 77.863281 112.003906 84.847656 112.003906 93.449219 C 112.003906 96.042969 111.304688 98.453125 110.179688 100.609375 L 130.839844 121.273438 C 140.390625 112.707031 152.136719 107.949219 164.160156 107.035156 L 164.175781 67.464844 C 157.46875 68.097656 150.546875 65.960938 145.421875 60.839844 C 136.300781 51.714844 136.304688 36.863281 145.433594 27.734375 C 154.5625 18.605469 169.414062 18.601562 178.539062 27.722656 C 187.660156 36.84375 187.652344 51.691406 178.519531 60.824219 C 176.507812 62.835938 174.1875 64.328125 171.742188 65.453125 L 171.726562 106.984375 C 183.867188 107.683594 195.792969 112.273438 205.503906 120.765625 L 224.90625 101.367188 C 223.46875 98.976562 222.65625 96.253906 222.65625 93.394531 C 222.65625 89.226562 224.28125 85.3125 227.226562 82.371094 C 230.171875 79.421875 234.085938 77.800781 238.25 77.800781 C 246.574219 77.792969 253.839844 85.050781 253.828125 93.375 C 253.828125 97.542969 252.203125 101.457031 249.257812 104.402344 C 246.3125 107.347656 242.398438 108.96875 238.234375 108.96875 C 235.371094 108.972656 232.644531 108.15625 230.25 106.71875 L 210.851562 126.117188 C 219.335938 135.816406 223.925781 147.726562 224.628906 159.855469 L 266.183594 159.835938 C 267.308594 157.40625 268.792969 155.097656 270.792969 153.097656 C 279.925781 143.964844 294.773438 143.957031 303.894531 153.078125 C 313.015625 162.203125 313.011719 177.054688 303.882812 186.183594 C 294.753906 195.3125 279.902344 195.316406 270.777344 186.195312 C 265.644531 181.0625 263.507812 174.125 264.15625 167.402344 L 224.582031 167.421875 C 223.675781 179.457031 218.917969 191.21875 210.34375 200.777344 L 231.019531 221.449219 C 233.214844 220.300781 235.640625 219.625 238.191406 219.625 C 246.523438 219.621094 253.78125 226.875 253.769531 235.203125 C 253.769531 239.367188 252.144531 243.28125 249.199219 246.226562 C 246.253906 249.171875 242.339844 250.796875 238.175781 250.796875 C 234.015625 250.800781 230.101562 249.183594 227.15625 246.238281 C 224.214844 243.296875 222.597656 239.382812 222.597656 235.21875 C 222.597656 232.039062 223.554688 229.015625 225.3125 226.449219 L 204.941406 206.078125 C 195.320312 214.285156 183.597656 218.71875 171.675781 219.414062 L 171.648438 273.929688 C 174.09375 275.054688 176.410156 276.542969 178.421875 278.550781 C 187.542969 287.675781 187.539062 302.527344 178.410156 311.65625 C 169.277344 320.785156 154.425781 320.789062 145.304688 311.667969 C 136.183594 302.546875 136.191406 287.699219 145.320312 278.566406 C 150.449219 273.4375 157.375 271.296875 164.085938 271.925781 L 164.109375 219.371094 C 152.3125 218.484375 140.773438 213.898438 131.332031 205.636719 L 109.679688 227.289062 C 111.085938 229.632812 111.945312 232.34375 111.945312 235.273438 C 111.945312 239.4375 110.320312 243.355469 107.375 246.296875 C 104.429688 249.242188 100.515625 250.867188 96.351562 250.867188 C 92.054688 250.867188 88.15625 249.125 85.339844 246.304688 C 82.515625 243.480469 80.769531 239.585938 80.769531 235.285156 C 80.777344 226.695312 87.773438 219.699219 96.363281 219.691406 C 99.285156 219.691406 101.988281 220.546875 104.324219 221.945312 L 125.980469 200.289062 C 117.710938 190.835938 113.125 179.285156 112.246094 167.472656 L 59.691406 167.527344 C 60.320312 174.238281 58.179688 181.164062 53.050781 186.296875 C 43.917969 195.425781 29.070312 195.433594 19.949219 186.3125 C 10.824219 177.191406 10.832031 162.339844 19.960938 153.207031 C 29.089844 144.078125 43.941406 144.074219 53.066406 153.195312 Z M 104.4375 93.453125 C 104.441406 89.035156 100.847656 85.433594 96.421875 85.433594 C 92 85.4375 88.398438 89.039062 88.394531 93.457031 C 88.398438 97.882812 91.996094 101.476562 96.414062 101.476562 C 100.835938 101.476562 104.4375 97.875 104.4375 93.453125 Z M 173.183594 33.074219 C 167.011719 26.902344 156.960938 26.90625 150.78125 33.082031 C 144.601562 39.261719 144.601562 49.3125 150.773438 55.484375 C 156.949219 61.660156 166.996094 61.65625 173.171875 55.476562 C 179.351562 49.296875 179.359375 39.25 173.183594 33.074219 Z M 276.132812 180.84375 C 282.304688 187.015625 292.355469 187.015625 298.53125 180.835938 C 304.710938 174.65625 304.714844 164.605469 298.542969 158.433594 C 292.367188 152.257812 282.320312 152.265625 276.140625 158.445312 C 269.960938 164.621094 269.957031 174.667969 276.132812 180.84375 Z M 230.164062 235.214844 C 230.160156 239.507812 233.902344 243.230469 238.179688 243.230469 C 240.324219 243.230469 242.335938 242.394531 243.851562 240.878906 C 245.367188 239.363281 246.203125 237.347656 246.203125 235.207031 C 246.207031 233.066406 245.371094 231.050781 243.859375 229.535156 C 242.347656 228.023438 240.332031 227.191406 238.1875 227.191406 C 236.042969 227.191406 234.03125 228.027344 232.515625 229.539062 C 231 231.058594 230.164062 233.070312 230.164062 235.214844 Z M 150.667969 283.914062 C 144.492188 290.09375 144.484375 300.140625 150.65625 306.316406 C 156.832031 312.488281 166.882812 312.484375 173.0625 306.308594 C 179.238281 300.128906 179.242188 290.078125 173.066406 283.90625 C 166.894531 277.730469 156.847656 277.738281 150.667969 283.914062 Z M 238.238281 101.40625 C 240.382812 101.40625 242.394531 100.566406 243.910156 99.054688 C 245.425781 97.539062 246.261719 95.523438 246.261719 93.378906 C 246.265625 91.238281 245.429688 89.226562 243.917969 87.710938 C 242.402344 86.195312 240.386719 85.363281 238.246094 85.363281 C 236.101562 85.363281 234.089844 86.203125 232.574219 87.71875 C 231.058594 89.230469 230.222656 91.246094 230.222656 93.390625 C 230.21875 97.671875 233.957031 101.410156 238.238281 101.40625 Z M 96.359375 227.257812 C 91.941406 227.261719 88.34375 230.863281 88.335938 235.28125 C 88.339844 239.710938 91.933594 243.304688 96.355469 243.300781 C 98.5 243.300781 100.511719 242.464844 102.027344 240.949219 C 103.542969 239.433594 104.378906 237.421875 104.378906 235.277344 C 104.378906 230.847656 100.78125 227.253906 96.359375 227.257812 Z M 133.875 197.746094 C 152.902344 216.773438 183.882812 216.761719 202.929688 197.714844 C 221.976562 178.667969 221.988281 147.6875 202.960938 128.660156 C 183.929688 109.628906 152.949219 109.640625 133.902344 128.6875 C 114.855469 147.734375 114.839844 178.714844 133.875 197.746094 Z M 25.300781 180.960938 C 31.476562 187.132812 41.523438 187.125 47.703125 180.945312 C 53.878906 174.769531 53.886719 164.722656 47.710938 158.550781 C 41.539062 152.375 31.488281 152.375 25.308594 158.554688 C 19.132812 164.734375 19.128906 174.785156 25.300781 180.960938 Z M 178.019531 153.261719 C 178.050781 153.296875 178.085938 153.332031 178.125 153.371094 C 183.582031 158.824219 183.683594 167.65625 178.324219 173.128906 C 175.703125 175.804688 172.191406 177.285156 168.425781 177.296875 C 164.683594 177.3125 161.144531 175.871094 158.457031 173.238281 C 158.421875 173.203125 158.386719 173.167969 158.351562 173.132812 C 152.894531 167.675781 152.792969 158.839844 158.152344 153.371094 C 160.769531 150.695312 164.285156 149.214844 168.050781 149.203125 C 171.792969 149.1875 175.328125 150.628906 178.019531 153.261719 Z M 163.707031 167.78125 C 163.71875 167.796875 163.738281 167.8125 163.753906 167.832031 C 165.015625 169.066406 166.667969 169.738281 168.40625 169.730469 C 170.128906 169.722656 171.730469 169.054688 172.921875 167.835938 C 175.378906 165.328125 175.304688 161.253906 172.769531 158.71875 C 172.753906 158.703125 172.738281 158.6875 172.71875 158.671875 C 171.460938 157.4375 169.808594 156.761719 168.070312 156.769531 C 166.347656 156.777344 164.742188 157.449219 163.554688 158.664062 C 161.097656 161.171875 161.171875 165.246094 163.707031 167.78125 Z M 163.707031 167.78125 " fill-opacity="1" fill-rule="nonzero"/></g></g></g></g></g></g></g></g><path fill="#000000" d="M 480.449219 707.363281 L 482.496094 698.101562 C 482.898438 696.300781 485.46875 696.300781 485.867188 698.101562 L 487.914062 707.363281 C 488.84375 711.574219 492.132812 714.859375 496.339844 715.789062 L 505.601562 717.839844 C 507.40625 718.238281 507.40625 720.808594 505.601562 721.207031 L 496.339844 723.253906 C 492.132812 724.183594 488.84375 727.472656 487.914062 731.679688 L 485.867188 740.941406 C 485.46875 742.746094 482.898438 742.746094 482.496094 740.941406 L 480.449219 731.679688 C 479.519531 727.472656 476.230469 724.183594 472.023438 723.253906 L 462.761719 721.207031 C 460.960938 720.808594 460.960938 718.238281 462.761719 717.839844 L 472.023438 715.789062 C 476.230469 714.859375 479.519531 711.574219 480.449219 707.363281 Z M 480.449219 707.363281 " fill-opacity="1" fill-rule="nonzero"/><g clip-path="url(#ad7205c5ff)"><path fill="#000000" d="M 503.855469 693.105469 L 504.570312 689.875 C 504.785156 688.90625 506.167969 688.90625 506.382812 689.875 L 507.097656 693.105469 C 507.507812 694.957031 508.953125 696.402344 510.804688 696.8125 L 514.035156 697.527344 C 515.003906 697.742188 515.003906 699.125 514.035156 699.339844 L 510.804688 700.054688 C 508.953125 700.464844 507.507812 701.910156 507.097656 703.761719 L 506.382812 706.992188 C 506.167969 707.960938 504.785156 707.960938 504.570312 706.992188 L 503.855469 703.761719 C 503.445312 701.910156 502 700.464844 500.148438 700.054688 L 496.917969 699.339844 C 495.945312 699.125 495.945312 697.742188 496.917969 697.527344 L 500.148438 696.8125 C 502 696.402344 503.445312 694.957031 503.855469 693.105469 Z M 503.855469 693.105469 " fill-opacity="1" fill-rule="nonzero"/></g><g clip-path="url(#3a5721bebb)"><path fill="#000000" d="M 461.679688 735.28125 L 462.390625 732.050781 C 462.605469 731.082031 463.988281 731.082031 464.203125 732.050781 L 464.917969 735.28125 C 465.328125 737.136719 466.773438 738.582031 468.625 738.992188 L 471.855469 739.703125 C 472.828125 739.917969 472.828125 741.300781 471.855469 741.515625 L 468.625 742.230469 C 466.773438 742.640625 465.328125 744.085938 464.917969 745.9375 L 464.203125 749.171875 C 463.988281 750.140625 462.605469 750.140625 462.390625 749.171875 L 461.679688 745.9375 C 461.269531 744.085938 459.820312 742.640625 457.96875 742.230469 L 454.738281 741.515625 C 453.769531 741.300781 453.769531 739.917969 454.738281 739.703125 L 457.96875 738.992188 C 459.820312 738.582031 461.269531 737.136719 461.679688 735.28125 Z M 461.679688 735.28125 " fill-opacity="1" fill-rule="nonzero"/></g></svg>