<svg xmlns="http://www.w3.org/2000/svg" xmlns:xlink="http://www.w3.org/1999/xlink" width="461" zoomAndPan="magnify" viewBox="0 0 345.75 343.499995" height="458" preserveAspectRatio="xMidYMid meet" version="1.0"><defs><clipPath id="1a9b02acf8"><path d="M 14 12 L 345 12 L 345 343 L 14 343 Z M 14 12 " clip-rule="nonzero"/></clipPath><clipPath id="be40786ab1"><path d="M 180.914062 12.695312 L 344.546875 176.328125 L 178.265625 342.609375 L 14.632812 178.976562 Z M 180.914062 12.695312 " clip-rule="nonzero"/></clipPath><clipPath id="ef838d96a0"><path d="M 13 21 L 311 21 L 311 319 L 13 319 Z M 13 21 " clip-rule="nonzero"/></clipPath><clipPath id="ce87b38959"><path d="M 166.914062 0.695312 L 330.546875 164.328125 L 164.265625 330.609375 L 0.632812 166.976562 Z M 166.914062 0.695312 " clip-rule="nonzero"/></clipPath><clipPath id="a8d4d8d7ab"><path d="M 330.648438 164.429688 L 167.011719 0.792969 L 0.730469 167.074219 L 164.367188 330.710938 Z M 330.648438 164.429688 " clip-rule="nonzero"/></clipPath><clipPath id="5170a9e53f"><path d="M 330.648438 164.429688 L 167.011719 0.792969 L 0.730469 167.074219 L 164.367188 330.710938 Z M 330.648438 164.429688 " clip-rule="nonzero"/></clipPath><clipPath id="f9cedc4327"><rect x="0" width="331" y="0" height="331"/></clipPath><clipPath id="d244d65614"><path d="M 93 0 L 134.929688 0 L 134.929688 42 L 93 42 Z M 93 0 " clip-rule="nonzero"/></clipPath><clipPath id="aead5c2c36"><path d="M 0.125 93 L 42 93 L 42 134.804688 L 0.125 134.804688 Z M 0.125 93 " clip-rule="nonzero"/></clipPath></defs><g clip-path="url(#1a9b02acf8)"><g clip-path="url(#be40786ab1)"><g transform="matrix(1, 0, 0, 1, 14, 12)"><g clip-path="url(#f9cedc4327)"><g clip-path="url(#ef838d96a0)"><g clip-path="url(#ce87b38959)"><g clip-path="url(#a8d4d8d7ab)"><g clip-path="url(#5170a9e53f)"><path fill="#000000" d="M 153.585938 134.449219 L 155.109375 135.90625 C 155.867188 135.585938 156.65625 135.269531 157.40625 134.964844 L 157.628906 134.875 L 157.636719 132.941406 C 157.558594 131.007812 158.289062 129.125 159.636719 127.777344 C 160.984375 126.429688 162.871094 125.699219 164.570312 125.769531 L 171.136719 125.625 C 174.992188 125.703125 178.070312 128.738281 178.148438 132.480469 L 178.238281 134.695312 C 179.03125 134.972656 179.878906 135.335938 180.8125 135.800781 L 182.242188 134.3125 C 184.976562 131.582031 189.414062 131.578125 192.109375 134.273438 L 196.808594 138.828125 C 199.546875 141.566406 199.628906 145.902344 196.964844 148.710938 L 195.558594 150.175781 C 195.988281 151.023438 196.375 151.953125 196.722656 152.898438 L 198.910156 152.894531 C 202.785156 152.976562 205.917969 156.121094 205.917969 159.828125 L 206.058594 166.398438 C 205.980469 170.246094 202.933594 173.332031 199.097656 173.414062 L 197.046875 173.449219 L 196.890625 173.703125 C 196.640625 174.390625 196.367188 175.101562 195.988281 175.976562 L 196.96875 176.902344 L 197.398438 177.335938 C 200.195312 179.929688 200.371094 184.445312 197.609375 187.375 L 193.117188 191.9375 C 190.300781 194.757812 185.890625 194.757812 183.128906 191.996094 L 181.59375 190.523438 C 180.773438 190.933594 179.898438 191.273438 179.097656 191.578125 L 179.054688 191.59375 L 179.085938 193.65625 C 179.085938 197.46875 175.984375 200.636719 172.058594 200.710938 L 165.832031 200.644531 C 163.964844 200.714844 162.199219 200.070312 160.859375 198.828125 C 159.558594 197.648438 158.679688 195.753906 158.601562 193.683594 L 158.570312 191.660156 C 157.894531 191.421875 157.265625 191.144531 156.667969 190.875 C 156.4375 190.769531 156.21875 190.671875 155.824219 190.5 L 154.472656 191.851562 C 151.769531 194.703125 147.402344 194.8125 144.503906 192.074219 L 139.796875 187.507812 C 137.03125 184.742188 137.003906 180.269531 139.734375 177.539062 L 141.140625 176.136719 L 140.820312 175.453125 C 140.507812 174.808594 140.214844 174.179688 139.957031 173.503906 L 138.066406 173.441406 C 136.15625 173.515625 134.347656 172.816406 132.972656 171.464844 C 131.894531 170.214844 130.90625 168.441406 130.832031 166.511719 L 130.695312 160.230469 C 130.621094 158.25 131.378906 156.324219 132.78125 154.957031 C 134.144531 153.625 136.007812 152.925781 137.679688 153.03125 L 139.660156 153.03125 C 139.894531 152.269531 140.167969 151.550781 140.414062 151.046875 C 140.460938 150.910156 140.527344 150.71875 140.617188 150.496094 L 139.105469 149.046875 C 136.355469 146.296875 136.339844 141.839844 139.035156 139.144531 L 143.53125 134.511719 C 146.273438 131.769531 150.558594 131.710938 153.585938 134.449219 Z M 144.804688 144.042969 L 146.230469 145.40625 C 148.347656 147.523438 148.925781 150.691406 147.601562 153.378906 L 147.417969 153.855469 C 147.148438 154.445312 146.933594 155.035156 146.75 155.710938 C 145.867188 158.660156 143.089844 160.664062 140.097656 160.585938 L 138.257812 160.582031 L 138.375 165.902344 L 140.148438 165.964844 C 143.285156 165.796875 146.109375 167.773438 146.957031 170.648438 C 147.125 171.152344 147.375 171.648438 147.625 172.167969 L 148.023438 173.023438 C 149.394531 175.613281 148.9375 178.84375 146.785156 181.167969 L 145.472656 182.480469 L 149.375 186.269531 L 150.773438 184.871094 C 152.910156 182.734375 156.257812 182.222656 158.507812 183.441406 C 158.925781 183.601562 159.347656 183.792969 159.785156 183.988281 C 160.253906 184.199219 160.746094 184.433594 161.375 184.628906 C 164.136719 185.558594 166.042969 188.175781 166.121094 191.183594 L 166.152344 193.09375 L 171.523438 193.152344 L 171.496094 191.292969 C 171.417969 188.25 173.359375 185.496094 176.421875 184.511719 C 177.089844 184.261719 177.835938 183.988281 178.644531 183.542969 C 181.253906 182.238281 184.539062 182.792969 186.582031 184.832031 L 188.089844 186.285156 L 191.847656 182.472656 L 191.707031 182.328125 L 190.378906 181.074219 C 188.785156 179.480469 188.046875 177.339844 188.335938 175.324219 C 188.429688 174.492188 188.691406 173.683594 188.9375 173.296875 C 189.230469 172.609375 189.527344 171.859375 189.9375 170.773438 L 190.117188 170.355469 C 191.082031 167.640625 193.582031 165.898438 196.53125 165.898438 L 198.492188 165.867188 L 198.375 160.449219 L 195.710938 160.40625 C 192.894531 160.171875 190.605469 158.394531 189.753906 155.847656 C 189.460938 155.023438 189.113281 154.136719 188.691406 153.351562 C 187.269531 150.664062 187.753906 147.3125 189.804688 145.261719 L 191.144531 143.867188 L 187.203125 140.046875 L 186.011719 141.289062 C 183.898438 143.582031 180.515625 144.183594 177.828125 142.761719 C 177.125 142.394531 176.277344 141.988281 175.503906 141.746094 C 172.558594 140.878906 170.542969 138.058594 170.695312 135.117188 L 170.617188 133.191406 L 165.183594 133.308594 L 165.183594 135.011719 C 165.34375 138.164062 163.398438 140.984375 160.796875 141.742188 L 160.242188 141.964844 C 159.453125 142.285156 158.625 142.621094 158.203125 142.777344 C 155.609375 144.246094 152.25 143.730469 150.101562 141.582031 C 150.101562 141.582031 150.101562 141.582031 150.097656 141.578125 L 148.59375 140.140625 Z M 53.015625 153.25 C 55.023438 155.257812 56.507812 157.574219 57.632812 160.015625 L 112.070312 159.953125 C 112.769531 148.0625 117.195312 136.367188 125.382812 126.769531 L 105.058594 106.445312 C 102.558594 108.15625 99.542969 109.164062 96.296875 109.164062 C 92.003906 109.164062 88.117188 107.421875 85.300781 104.605469 C 82.480469 101.785156 80.738281 97.894531 80.738281 93.601562 C 80.746094 85.023438 87.730469 78.039062 96.308594 78.03125 C 104.886719 78.03125 111.867188 85.003906 111.867188 93.589844 C 111.867188 96.179688 111.171875 98.589844 110.046875 100.742188 L 130.679688 121.375 C 140.210938 112.824219 151.945312 108.070312 163.949219 107.160156 L 163.964844 67.644531 C 157.265625 68.277344 150.355469 66.144531 145.238281 61.027344 C 136.128906 51.917969 136.132812 37.089844 145.25 27.972656 C 154.367188 18.855469 169.195312 18.851562 178.304688 27.960938 C 187.414062 37.070312 187.40625 51.894531 178.289062 61.015625 C 176.277344 63.023438 173.960938 64.511719 171.519531 65.636719 L 171.503906 107.109375 C 183.628906 107.804688 195.535156 112.390625 205.234375 120.871094 L 224.605469 101.5 C 223.171875 99.109375 222.359375 96.394531 222.359375 93.535156 C 222.359375 89.378906 223.980469 85.46875 226.921875 82.527344 C 229.863281 79.585938 233.773438 77.964844 237.929688 77.964844 C 246.242188 77.957031 253.496094 85.207031 253.484375 93.519531 C 253.484375 97.679688 251.863281 101.585938 248.921875 104.527344 C 245.980469 107.46875 242.074219 109.089844 237.914062 109.089844 C 235.054688 109.09375 232.335938 108.277344 229.941406 106.839844 L 210.574219 126.210938 C 219.042969 135.898438 223.628906 147.789062 224.332031 159.902344 L 265.820312 159.882812 C 266.945312 157.453125 268.425781 155.152344 270.425781 153.152344 C 279.542969 144.035156 294.371094 144.027344 303.480469 153.136719 C 312.589844 162.246094 312.582031 177.074219 303.464844 186.191406 C 294.351562 195.308594 279.519531 195.3125 270.410156 186.203125 C 265.285156 181.078125 263.152344 174.148438 263.800781 167.4375 L 224.285156 167.457031 C 223.378906 179.472656 218.625 191.21875 210.066406 200.761719 L 230.710938 221.40625 C 232.902344 220.257812 235.324219 219.582031 237.871094 219.582031 C 246.191406 219.578125 253.4375 226.824219 253.425781 235.140625 C 253.425781 239.296875 251.804688 243.207031 248.867188 246.144531 C 245.921875 249.089844 242.015625 250.710938 237.855469 250.710938 C 233.703125 250.714844 229.792969 249.097656 226.851562 246.15625 C 223.914062 243.21875 222.300781 239.316406 222.300781 235.15625 C 222.300781 231.980469 223.257812 228.960938 225.011719 226.398438 L 204.671875 206.058594 C 195.0625 214.25 183.359375 218.679688 171.453125 219.375 L 171.425781 273.808594 C 173.867188 274.933594 176.179688 276.417969 178.1875 278.425781 C 187.296875 287.535156 187.292969 302.363281 178.175781 311.480469 C 169.058594 320.597656 154.230469 320.601562 145.121094 311.492188 C 136.011719 302.386719 136.019531 287.558594 145.136719 278.441406 C 150.257812 273.320312 157.171875 271.179688 163.871094 271.808594 L 163.898438 219.328125 C 152.117188 218.445312 140.597656 213.863281 131.167969 205.617188 L 109.546875 227.238281 C 110.953125 229.578125 111.8125 232.285156 111.808594 235.210938 C 111.808594 239.367188 110.1875 243.277344 107.246094 246.21875 C 104.304688 249.160156 100.398438 250.78125 96.238281 250.78125 C 91.945312 250.78125 88.058594 249.039062 85.242188 246.222656 C 82.421875 243.402344 80.679688 239.515625 80.679688 235.222656 C 80.6875 226.644531 87.671875 219.65625 96.25 219.652344 C 99.167969 219.648438 101.867188 220.503906 104.199219 221.902344 L 125.824219 200.277344 C 117.570312 190.835938 112.988281 179.300781 112.109375 167.507812 L 59.632812 167.5625 C 60.261719 174.265625 58.121094 181.179688 53 186.304688 C 43.882812 195.421875 29.054688 195.429688 19.945312 186.320312 C 10.835938 177.210938 10.84375 162.378906 19.960938 153.261719 C 29.074219 144.148438 43.90625 144.144531 53.015625 153.25 Z M 104.3125 93.59375 C 104.316406 89.183594 100.726562 85.589844 96.308594 85.585938 C 91.894531 85.59375 88.296875 89.1875 88.292969 93.601562 C 88.296875 98.019531 91.890625 101.609375 96.300781 101.609375 C 100.71875 101.605469 104.3125 98.011719 104.3125 93.59375 Z M 172.960938 33.304688 C 166.796875 27.140625 156.757812 27.144531 150.589844 33.3125 C 144.417969 39.484375 144.417969 49.519531 150.582031 55.683594 C 156.746094 61.847656 166.777344 61.84375 172.949219 55.671875 C 179.117188 49.503906 179.125 39.46875 172.960938 33.304688 Z M 275.757812 180.859375 C 281.921875 187.023438 291.957031 187.019531 298.125 180.851562 C 304.296875 174.679688 304.296875 164.644531 298.132812 158.480469 C 291.96875 152.316406 281.9375 152.320312 275.765625 158.492188 C 269.597656 164.660156 269.59375 174.695312 275.757812 180.859375 Z M 229.855469 235.152344 C 229.855469 239.4375 233.589844 243.15625 237.859375 243.15625 C 240 243.15625 242.011719 242.320312 243.527344 240.804688 C 245.039062 239.292969 245.875 237.28125 245.871094 235.140625 C 245.875 233.003906 245.042969 230.992188 243.53125 229.480469 C 242.023438 227.972656 240.011719 227.140625 237.867188 227.140625 C 235.726562 227.136719 233.71875 227.972656 232.207031 229.484375 C 230.691406 231 229.855469 233.011719 229.855469 235.152344 Z M 150.476562 283.78125 C 144.308594 289.953125 144.300781 299.984375 150.464844 306.148438 C 156.628906 312.3125 166.667969 312.308594 172.835938 306.140625 C 179.007812 299.96875 179.007812 289.9375 172.84375 283.769531 C 166.679688 277.605469 156.648438 277.613281 150.476562 283.78125 Z M 237.917969 101.535156 C 240.058594 101.535156 242.070312 100.699219 243.582031 99.1875 C 245.097656 97.675781 245.933594 95.664062 245.929688 93.523438 C 245.933594 91.386719 245.101562 89.375 243.589844 87.863281 C 242.078125 86.347656 240.066406 85.515625 237.929688 85.519531 C 235.785156 85.519531 233.777344 86.355469 232.261719 87.867188 C 230.75 89.378906 229.914062 91.390625 229.914062 93.53125 C 229.910156 97.808594 233.644531 101.542969 237.917969 101.535156 Z M 96.25 227.207031 C 91.835938 227.210938 88.242188 230.804688 88.234375 235.21875 C 88.238281 239.640625 91.828125 243.230469 96.242188 243.226562 C 98.382812 243.226562 100.394531 242.390625 101.90625 240.878906 C 103.421875 239.363281 104.253906 237.355469 104.253906 235.214844 C 104.253906 230.792969 100.664062 227.199219 96.25 227.207031 Z M 133.707031 197.738281 C 152.707031 216.738281 183.640625 216.726562 202.664062 197.707031 C 221.683594 178.6875 221.695312 147.75 202.695312 128.75 C 183.6875 109.746094 152.753906 109.757812 133.734375 128.777344 C 114.714844 147.800781 114.703125 178.734375 133.707031 197.738281 Z M 25.292969 180.976562 C 31.457031 187.140625 41.488281 187.132812 47.660156 180.960938 C 53.828125 174.792969 53.832031 164.761719 47.667969 158.597656 C 41.503906 152.433594 31.46875 152.433594 25.300781 158.605469 C 19.128906 164.773438 19.128906 174.808594 25.292969 180.976562 Z M 177.785156 153.316406 C 177.820312 153.351562 177.855469 153.386719 177.894531 153.425781 C 183.34375 158.871094 183.445312 167.691406 178.09375 173.15625 C 175.476562 175.828125 171.964844 177.304688 168.207031 177.316406 C 164.472656 177.332031 160.9375 175.894531 158.253906 173.265625 C 158.21875 173.230469 158.183594 173.195312 158.148438 173.15625 C 152.699219 167.710938 152.597656 158.890625 157.949219 153.425781 C 160.5625 150.757812 164.074219 149.277344 167.832031 149.265625 C 171.570312 149.25 175.101562 150.6875 177.785156 153.316406 Z M 163.496094 167.816406 C 163.507812 167.828125 163.527344 167.847656 163.542969 167.863281 C 164.800781 169.097656 166.453125 169.769531 168.1875 169.761719 C 169.90625 169.757812 171.507812 169.085938 172.695312 167.871094 C 175.152344 165.367188 175.078125 161.296875 172.546875 158.765625 C 172.53125 158.753906 172.515625 158.734375 172.496094 158.71875 C 171.238281 157.484375 169.589844 156.8125 167.851562 156.820312 C 166.132812 156.828125 164.53125 157.496094 163.34375 158.710938 C 160.890625 161.214844 160.964844 165.285156 163.496094 167.816406 Z M 163.496094 167.816406 " fill-opacity="1" fill-rule="nonzero"/></g></g></g></g></g></g></g></g><path fill="#000000" d="M 58.792969 40.421875 L 63.335938 19.871094 C 64.222656 15.871094 69.925781 15.871094 70.8125 19.871094 L 75.355469 40.421875 C 77.421875 49.761719 84.714844 57.054688 94.054688 59.121094 L 114.605469 63.664062 C 118.605469 64.550781 118.605469 70.253906 114.605469 71.140625 L 94.054688 75.683594 C 84.714844 77.75 77.421875 85.042969 75.355469 94.382812 L 70.8125 114.933594 C 69.925781 118.933594 64.222656 118.933594 63.335938 114.933594 L 58.792969 94.382812 C 56.726562 85.042969 49.433594 77.75 40.09375 75.683594 L 19.542969 71.140625 C 15.542969 70.253906 15.542969 64.550781 19.542969 63.664062 L 40.09375 59.121094 C 49.433594 57.054688 56.726562 49.761719 58.792969 40.421875 Z M 58.792969 40.421875 " fill-opacity="1" fill-rule="nonzero"/><g clip-path="url(#d244d65614)"><path fill="#000000" d="M 110.726562 8.785156 L 112.3125 1.613281 C 112.789062 -0.539062 115.859375 -0.539062 116.335938 1.613281 L 117.921875 8.785156 C 118.828125 12.894531 122.039062 16.101562 126.148438 17.011719 L 133.316406 18.597656 C 135.46875 19.070312 135.46875 22.140625 133.316406 22.617188 L 126.148438 24.203125 C 122.039062 25.113281 118.828125 28.320312 117.921875 32.429688 L 116.335938 39.597656 C 115.859375 41.75 112.789062 41.75 112.3125 39.597656 L 110.726562 32.429688 C 109.820312 28.320312 106.609375 25.113281 102.5 24.203125 L 95.332031 22.617188 C 93.179688 22.140625 93.179688 19.070312 95.332031 18.597656 L 102.5 17.011719 C 106.609375 16.101562 109.820312 12.894531 110.726562 8.785156 Z M 110.726562 8.785156 " fill-opacity="1" fill-rule="nonzero"/></g><g clip-path="url(#aead5c2c36)"><path fill="#000000" d="M 17.136719 102.375 L 18.722656 95.207031 C 19.199219 93.054688 22.269531 93.054688 22.742188 95.207031 L 24.328125 102.375 C 25.238281 106.484375 28.445312 109.691406 32.554688 110.601562 L 39.726562 112.1875 C 41.878906 112.664062 41.878906 115.734375 39.726562 116.207031 L 32.554688 117.792969 C 28.445312 118.703125 25.238281 121.914062 24.328125 126.019531 L 22.742188 133.191406 C 22.269531 135.34375 19.199219 135.34375 18.722656 133.191406 L 17.136719 126.019531 C 16.226562 121.914062 13.019531 118.703125 8.910156 117.792969 L 1.742188 116.207031 C -0.410156 115.734375 -0.410156 112.664062 1.742188 112.1875 L 8.910156 110.601562 C 13.019531 109.691406 16.226562 106.484375 17.136719 102.375 Z M 17.136719 102.375 " fill-opacity="1" fill-rule="nonzero"/></g></svg>