<svg xmlns="http://www.w3.org/2000/svg" xmlns:xlink="http://www.w3.org/1999/xlink" zoomAndPan="magnify" viewBox="380 625 660 250" preserveAspectRatio="xMidYMid meet" version="1.0"><defs><g/><clipPath id="f20d03e5e4"><path d="M 522.832031 768.25 L 609.082031 768.25 L 609.082031 854.5 L 522.832031 854.5 Z M 522.832031 768.25 " clip-rule="nonzero"/></clipPath><clipPath id="5545f6f07e"><path d="M 401.425781 768.25 L 479.425781 768.25 L 479.425781 850 L 401.425781 850 Z M 401.425781 768.25 " clip-rule="nonzero"/></clipPath><clipPath id="d902ccd236"><path d="M 494.910156 645.238281 L 609.660156 645.238281 L 609.660156 741.988281 L 494.910156 741.988281 Z M 494.910156 645.238281 " clip-rule="nonzero"/></clipPath><clipPath id="d6964ade3d"><rect x="0" width="410" y="0" height="184"/></clipPath></defs><g clip-path="url(#f20d03e5e4)"><path fill="currentColor" d="M 594.839844 811.492188 L 594.839844 779.917969 C 594.839844 779.445312 594.53125 779.03125 594.078125 778.890625 L 559.160156 768.292969 C 558.957031 768.234375 558.738281 768.234375 558.535156 768.292969 L 523.617188 778.890625 C 523.164062 779.03125 522.855469 779.445312 522.855469 779.917969 L 522.855469 817.695312 C 522.855469 821.398438 523.710938 824.617188 525.554688 827.828125 C 531.917969 838.921875 543.597656 848.363281 558.441406 854.417969 C 558.574219 854.472656 558.710938 854.496094 558.847656 854.496094 C 558.984375 854.496094 559.125 854.46875 559.253906 854.417969 C 565.738281 851.773438 571.632812 848.484375 576.789062 844.640625 C 580.21875 847.699219 584.730469 849.558594 589.675781 849.558594 C 600.363281 849.558594 609.0625 840.863281 609.0625 830.175781 C 609.0625 821.273438 603.03125 813.757812 594.84375 811.488281 Z M 558.847656 852.261719 C 544.636719 846.386719 533.484375 837.339844 527.417969 826.761719 C 525.746094 823.847656 525.003906 821.054688 525.003906 817.695312 L 525.003906 780.714844 L 558.847656 770.445312 L 592.691406 780.714844 L 592.691406 811.027344 C 591.710938 810.871094 590.703125 810.789062 589.675781 810.789062 C 589.34375 810.789062 589.019531 810.796875 588.691406 810.816406 L 588.691406 784.476562 C 588.691406 784.003906 588.382812 783.589844 587.929688 783.449219 L 559.160156 774.71875 C 558.957031 774.65625 558.738281 774.65625 558.535156 774.71875 L 529.765625 783.449219 C 529.3125 783.589844 529.003906 784.003906 529.003906 784.476562 L 529.003906 817.699219 C 529.003906 820.320312 529.585938 822.5 530.886719 824.769531 C 533.726562 829.714844 537.75 834.292969 542.847656 838.378906 C 547.359375 841.988281 552.597656 845.132812 558.410156 847.722656 C 558.550781 847.785156 558.699219 847.816406 558.847656 847.816406 C 558.996094 847.816406 559.144531 847.785156 559.285156 847.722656 C 564.273438 845.5 568.84375 842.863281 572.898438 839.875 C 573.570312 841.03125 574.359375 842.117188 575.25 843.109375 C 570.410156 846.683594 564.898438 849.757812 558.847656 852.261719 Z M 586.542969 811.042969 C 577.339844 812.546875 570.289062 820.550781 570.289062 830.175781 C 570.289062 832.933594 570.871094 835.554688 571.910156 837.933594 C 568.03125 840.828125 563.640625 843.394531 558.847656 845.5625 C 547.03125 840.214844 537.777344 832.464844 532.75 823.699219 C 531.628906 821.746094 531.148438 819.949219 531.148438 817.695312 L 531.148438 785.273438 L 558.847656 776.867188 L 586.542969 785.273438 Z M 589.675781 847.414062 C 580.167969 847.414062 572.4375 839.683594 572.4375 830.175781 C 572.4375 820.671875 580.167969 812.9375 589.675781 812.9375 C 599.179688 812.9375 606.910156 820.671875 606.910156 830.175781 C 606.910156 839.683594 599.179688 847.414062 589.675781 847.414062 Z M 596.125 826 L 595.074219 826 L 595.074219 822.925781 C 595.074219 819.949219 592.652344 817.523438 589.675781 817.523438 C 586.695312 817.523438 584.273438 819.949219 584.273438 822.925781 L 584.273438 826 L 583.222656 826 C 581.667969 826 580.402344 827.265625 580.402344 828.820312 L 580.402344 838.761719 C 580.402344 840.316406 581.667969 841.582031 583.222656 841.582031 L 596.125 841.582031 C 597.679688 841.582031 598.945312 840.316406 598.945312 838.761719 L 598.945312 828.820312 C 598.945312 827.265625 597.679688 826 596.125 826 Z M 586.421875 822.921875 C 586.421875 821.128906 587.882812 819.671875 589.675781 819.671875 C 591.472656 819.671875 592.929688 821.128906 592.929688 822.921875 L 592.929688 825.996094 L 586.425781 825.996094 L 586.425781 822.921875 Z M 596.796875 838.761719 C 596.796875 839.125 596.488281 839.433594 596.125 839.433594 L 583.222656 839.433594 C 582.859375 839.433594 582.550781 839.125 582.550781 838.761719 L 582.550781 828.816406 C 582.550781 828.453125 582.859375 828.144531 583.222656 828.144531 L 596.125 828.144531 C 596.488281 828.144531 596.796875 828.453125 596.796875 828.816406 Z M 548.144531 805.484375 C 547.261719 804.601562 546.082031 804.113281 544.824219 804.113281 C 543.566406 804.113281 542.390625 804.601562 541.503906 805.484375 C 539.675781 807.316406 539.675781 810.292969 541.503906 812.121094 L 550.851562 821.472656 C 551.769531 822.386719 552.972656 822.847656 554.175781 822.84375 C 555.375 822.84375 556.570312 822.390625 557.484375 821.476562 L 576.1875 802.773438 C 578.019531 800.941406 578.019531 797.964844 576.1875 796.132812 C 575.304688 795.25 574.125 794.765625 572.871094 794.765625 C 571.613281 794.765625 570.433594 795.25 569.550781 796.132812 L 554.171875 811.511719 L 548.140625 805.484375 Z M 571.070312 797.652344 C 571.546875 797.175781 572.1875 796.914062 572.871094 796.914062 C 573.554688 796.914062 574.195312 797.175781 574.671875 797.652344 C 575.664062 798.648438 575.664062 800.261719 574.671875 801.253906 L 555.96875 819.960938 C 554.976562 820.949219 553.367188 820.945312 552.375 819.953125 L 543.027344 810.605469 C 542.03125 809.613281 542.03125 807.996094 543.027344 807.003906 C 543.503906 806.527344 544.144531 806.261719 544.828125 806.261719 C 545.507812 806.261719 546.148438 806.527344 546.625 807.003906 L 553.414062 813.792969 C 553.835938 814.210938 554.515625 814.210938 554.933594 813.792969 L 571.070312 797.65625 Z M 590.75 832.125 L 590.75 835.453125 C 590.75 836.046875 590.265625 836.527344 589.675781 836.527344 C 589.082031 836.527344 588.601562 836.046875 588.601562 835.453125 L 588.601562 832.125 C 588.601562 831.535156 589.082031 831.054688 589.675781 831.054688 C 590.265625 831.054688 590.75 831.535156 590.75 832.125 Z M 590.75 832.125 "  fill-rule="nonzero"/></g><g clip-path="url(#5545f6f07e)"><path fill="currentColor" d="M 479.347656 809.09375 C 479.347656 818.1875 479.285156 827.277344 479.386719 836.371094 C 479.417969 839.324219 478.136719 841.300781 475.8125 842.847656 C 471.785156 845.527344 467.21875 846.773438 462.589844 847.765625 C 452.160156 849.996094 441.605469 850.433594 431 849.613281 C 423.648438 849.042969 416.375 847.933594 409.464844 845.160156 C 407.160156 844.230469 404.945312 843.132812 403.195312 841.285156 C 402.085938 840.113281 401.476562 838.761719 401.476562 837.105469 C 401.484375 818.640625 401.507812 800.175781 401.433594 781.710938 C 401.421875 778.902344 402.605469 776.972656 404.753906 775.46875 C 407.953125 773.234375 411.589844 772.015625 415.320312 771.078125 C 425.742188 768.46875 436.332031 767.886719 447.015625 768.4375 C 453.738281 768.785156 460.386719 769.632812 466.878906 771.457031 C 470.042969 772.347656 473.128906 773.441406 475.882812 775.308594 C 478.183594 776.867188 479.449219 778.863281 479.417969 781.816406 C 479.308594 790.90625 479.378906 800 479.378906 809.09375 C 479.367188 809.09375 479.359375 809.09375 479.351562 809.09375 Z M 477.253906 803.726562 C 475.320312 804.761719 473.476562 805.960938 471.476562 806.785156 C 464.863281 809.515625 457.863281 810.65625 450.796875 811.246094 C 440.082031 812.144531 429.402344 811.847656 418.839844 809.617188 C 414.507812 808.703125 410.230469 807.578125 406.359375 805.3125 C 405.421875 804.761719 404.546875 804.101562 403.628906 803.484375 C 403.589844 803.597656 403.554688 803.652344 403.554688 803.710938 C 403.570312 808.550781 403.542969 813.390625 403.648438 818.230469 C 403.667969 819.046875 404.085938 819.992188 404.613281 820.636719 C 406.199219 822.566406 408.464844 823.507812 410.730469 824.351562 C 417.457031 826.851562 424.488281 827.882812 431.597656 828.402344 C 437.4375 828.832031 443.285156 828.882812 449.132812 828.433594 C 455.53125 827.941406 461.859375 827.023438 468 825.082031 C 470.425781 824.3125 472.78125 823.382812 474.882812 821.910156 C 476.4375 820.820312 477.359375 819.46875 477.289062 817.402344 C 477.164062 813.839844 477.253906 810.265625 477.253906 806.699219 C 477.253906 805.65625 477.253906 804.613281 477.253906 803.726562 Z M 477.199219 822.703125 C 474.589844 824.890625 471.601562 826.136719 468.503906 827.109375 C 460.375 829.65625 452 830.605469 443.527344 830.8125 C 437.089844 830.972656 430.65625 830.738281 424.277344 829.742188 C 417.007812 828.609375 409.785156 827.300781 403.632812 822.816406 C 403.609375 822.871094 403.570312 822.925781 403.570312 822.984375 C 403.582031 827.636719 403.621094 832.292969 403.601562 836.945312 C 403.59375 838.152344 403.925781 839.238281 404.855469 839.914062 C 406.394531 841.03125 407.964844 842.207031 409.699219 842.9375 C 417.089844 846.054688 424.929688 847.21875 432.867188 847.554688 C 438.421875 847.785156 444.003906 847.65625 449.5625 847.417969 C 456.105469 847.144531 462.53125 845.988281 468.757812 843.902344 C 471.34375 843.035156 473.863281 841.988281 475.898438 840.070312 C 476.71875 839.300781 477.257812 838.394531 477.257812 837.222656 C 477.257812 832.539062 477.261719 827.851562 477.261719 823.164062 C 477.261719 823.054688 477.230469 822.941406 477.199219 822.703125 Z M 477.25 784.71875 C 476.464844 785.265625 475.820312 785.746094 475.144531 786.175781 C 472.320312 787.976562 469.175781 789.019531 465.976562 789.867188 C 459.1875 791.664062 452.257812 792.441406 445.246094 792.714844 C 436.054688 793.074219 426.9375 792.5625 417.933594 790.609375 C 412.855469 789.507812 407.878906 788.101562 403.640625 784.742188 C 403.625 784.921875 403.605469 785.066406 403.605469 785.210938 C 403.609375 789.585938 403.664062 793.960938 403.59375 798.335938 C 403.566406 799.957031 404.207031 801.164062 405.371094 802.128906 C 406.128906 802.753906 406.96875 803.304688 407.835938 803.773438 C 411.183594 805.582031 414.828125 806.566406 418.507812 807.402344 C 424.261719 808.707031 430.109375 809.273438 435.992188 809.484375 C 445.964844 809.835938 455.839844 809.160156 465.527344 806.621094 C 468.796875 805.765625 471.984375 804.667969 474.800781 802.714844 C 476.421875 801.589844 477.359375 800.183594 477.289062 798.054688 C 477.167969 794.304688 477.253906 790.550781 477.25 786.796875 C 477.25 786.125 477.25 785.453125 477.25 784.71875 Z M 440.230469 790.78125 C 445.28125 790.734375 451.332031 790.484375 457.335938 789.523438 C 462.234375 788.738281 467.09375 787.789062 471.628906 785.71875 C 473.261719 784.972656 474.792969 783.902344 476.179688 782.746094 C 477.671875 781.503906 477.636719 779.960938 476.3125 778.515625 C 475.777344 777.929688 475.144531 777.410156 474.492188 776.949219 C 472.1875 775.304688 469.527344 774.464844 466.859375 773.660156 C 460.632812 771.789062 454.234375 770.96875 447.761719 770.644531 C 437.53125 770.136719 427.347656 770.417969 417.316406 772.761719 C 413.460938 773.664062 409.609375 774.667969 406.292969 776.976562 C 405.402344 777.597656 404.644531 778.464844 403.984375 779.339844 C 403.402344 780.109375 403.394531 781.097656 404.027344 781.859375 C 404.75 782.726562 405.503906 783.703125 406.464844 784.210938 C 408.671875 785.367188 410.9375 786.496094 413.308594 787.226562 C 421.734375 789.828125 430.433594 790.644531 440.230469 790.78125 Z M 440.230469 790.78125 "  fill-rule="nonzero"/></g><path fill="currentColor" d="M 472.761719 796.40625 C 472.761719 796.726562 472.699219 797.039062 472.578125 797.335938 C 472.453125 797.632812 472.277344 797.898438 472.050781 798.125 C 471.824219 798.355469 471.558594 798.53125 471.261719 798.652344 C 470.964844 798.777344 470.65625 798.839844 470.332031 798.839844 C 470.011719 798.839844 469.703125 798.777344 469.40625 798.652344 C 469.105469 798.53125 468.84375 798.355469 468.617188 798.125 C 468.390625 797.898438 468.214844 797.632812 468.089844 797.335938 C 467.96875 797.039062 467.90625 796.726562 467.90625 796.40625 C 467.90625 796.082031 467.96875 795.773438 468.089844 795.472656 C 468.214844 795.175781 468.390625 794.914062 468.617188 794.683594 C 468.84375 794.457031 469.105469 794.28125 469.40625 794.15625 C 469.703125 794.035156 470.011719 793.972656 470.332031 793.972656 C 470.65625 793.972656 470.964844 794.035156 471.261719 794.15625 C 471.558594 794.28125 471.824219 794.457031 472.050781 794.683594 C 472.277344 794.914062 472.453125 795.175781 472.578125 795.472656 C 472.699219 795.773438 472.761719 796.082031 472.761719 796.40625 Z M 472.761719 796.40625 "  fill-rule="nonzero"/><path fill="currentColor" d="M 472.761719 815.210938 C 472.761719 815.535156 472.699219 815.84375 472.578125 816.140625 C 472.453125 816.441406 472.277344 816.703125 472.050781 816.933594 C 471.824219 817.160156 471.558594 817.335938 471.261719 817.460938 C 470.964844 817.582031 470.65625 817.644531 470.332031 817.644531 C 470.011719 817.644531 469.703125 817.582031 469.40625 817.460938 C 469.105469 817.335938 468.84375 817.160156 468.617188 816.933594 C 468.390625 816.703125 468.214844 816.441406 468.089844 816.140625 C 467.96875 815.84375 467.90625 815.535156 467.90625 815.210938 C 467.90625 814.886719 467.96875 814.578125 468.089844 814.28125 C 468.214844 813.980469 468.390625 813.71875 468.617188 813.492188 C 468.84375 813.261719 469.105469 813.085938 469.40625 812.964844 C 469.703125 812.839844 470.011719 812.777344 470.332031 812.777344 C 470.65625 812.777344 470.964844 812.839844 471.261719 812.964844 C 471.558594 813.085938 471.824219 813.261719 472.050781 813.492188 C 472.277344 813.71875 472.453125 813.980469 472.578125 814.28125 C 472.699219 814.578125 472.761719 814.886719 472.761719 815.210938 Z M 472.761719 815.210938 "  fill-rule="nonzero"/><path fill="currentColor" d="M 472.761719 835.1875 C 472.761719 835.511719 472.699219 835.824219 472.578125 836.121094 C 472.453125 836.417969 472.277344 836.683594 472.050781 836.910156 C 471.824219 837.136719 471.558594 837.3125 471.261719 837.4375 C 470.964844 837.5625 470.65625 837.621094 470.332031 837.621094 C 470.011719 837.621094 469.703125 837.5625 469.40625 837.4375 C 469.105469 837.3125 468.84375 837.136719 468.617188 836.910156 C 468.390625 836.683594 468.214844 836.417969 468.089844 836.121094 C 467.96875 835.824219 467.90625 835.511719 467.90625 835.1875 C 467.90625 834.867188 467.96875 834.554688 468.089844 834.257812 C 468.214844 833.960938 468.390625 833.695312 468.617188 833.46875 C 468.84375 833.242188 469.105469 833.066406 469.40625 832.941406 C 469.703125 832.816406 470.011719 832.757812 470.332031 832.757812 C 470.65625 832.757812 470.964844 832.816406 471.261719 832.941406 C 471.558594 833.066406 471.824219 833.242188 472.050781 833.46875 C 472.277344 833.695312 472.453125 833.960938 472.578125 834.257812 C 472.699219 834.554688 472.761719 834.867188 472.761719 835.1875 Z M 472.761719 835.1875 "  fill-rule="nonzero"/><path stroke-linecap="butt" transform="matrix(-0.354523, -0.660918, 0.660918, -0.354523, 564.765345, 768.95581)" fill="none" stroke-linejoin="miter" d="M 0.00157069 1.99896 L 28.376343 2.000358 " stroke="currentColor" stroke-width="4"  stroke-miterlimit="4"/><path stroke-linecap="round" transform="matrix(-0.354523, -0.660918, 0.660918, -0.354523, 564.765345, 768.95581)"  fill="currentColor" fill-rule="nonzero" stroke-linejoin="round" d="M 29.378137 -3.999101 L 37.377902 2.00014 L 29.37854 7.999096 Z M 29.378137 -3.999101 " stroke="currentColor" stroke-width="4"  stroke-miterlimit="4"/><g clip-path="url(#d902ccd236)"><path fill="#333333" d="M 531.085938 689.09375 C 535.761719 689.09375 539.996094 690.980469 543.0625 694.03125 C 546.128906 697.078125 548.023438 701.292969 548.023438 705.945312 C 548.023438 710.601562 546.128906 714.8125 543.0625 717.863281 C 539.996094 720.914062 535.761719 722.800781 531.085938 722.800781 C 526.410156 722.800781 522.175781 720.914062 519.109375 717.863281 C 516.042969 714.8125 514.148438 710.601562 514.148438 705.945312 C 514.148438 701.292969 516.042969 697.078125 519.109375 694.03125 C 522.175781 690.980469 526.410156 689.09375 531.085938 689.09375 Z M 563.851562 662.789062 L 561.621094 659.128906 C 561.183594 658.410156 560.898438 657.605469 560.898438 656.816406 C 560.898438 656.03125 561.160156 655.285156 561.792969 654.65625 L 564.695312 651.765625 C 565.328125 651.136719 566.078125 650.875 566.867188 650.875 C 567.660156 650.875 568.46875 651.164062 569.1875 651.597656 L 572.867188 653.816406 C 573.386719 653.550781 573.914062 653.308594 574.453125 653.085938 C 574.996094 652.863281 575.542969 652.664062 576.09375 652.488281 L 577.117188 648.335938 C 577.316406 647.515625 577.6875 646.746094 578.246094 646.1875 C 578.804688 645.632812 579.523438 645.285156 580.417969 645.285156 L 584.523438 645.285156 C 585.417969 645.285156 586.132812 645.632812 586.691406 646.1875 C 587.253906 646.746094 587.621094 647.519531 587.824219 648.335938 L 588.847656 652.484375 C 589.402344 652.664062 589.949219 652.863281 590.484375 653.082031 C 591.019531 653.304688 591.550781 653.550781 592.070312 653.816406 L 595.75 651.597656 C 596.472656 651.164062 597.28125 650.875 598.074219 650.875 C 598.859375 650.875 599.613281 651.136719 600.246094 651.765625 L 603.148438 654.65625 C 603.78125 655.285156 604.042969 656.03125 604.042969 656.816406 C 604.042969 657.605469 603.753906 658.410156 603.316406 659.128906 L 601.085938 662.785156 C 601.355469 663.304688 601.601562 663.828125 601.824219 664.363281 C 602.046875 664.902344 602.246094 665.449219 602.425781 665.996094 L 606.597656 667.015625 C 607.417969 667.214844 608.195312 667.582031 608.757812 668.140625 C 609.3125 668.695312 609.660156 669.410156 609.660156 670.296875 L 609.660156 674.382812 C 609.660156 675.273438 609.3125 675.988281 608.757812 676.542969 C 608.195312 677.101562 607.417969 677.46875 606.597656 677.667969 L 602.425781 678.683594 C 602.246094 679.238281 602.046875 679.78125 601.824219 680.3125 C 601.605469 680.847656 601.355469 681.375 601.085938 681.894531 L 603.316406 685.554688 C 603.753906 686.273438 604.042969 687.074219 604.042969 687.863281 C 604.042969 688.648438 603.78125 689.398438 603.148438 690.027344 L 600.246094 692.914062 C 599.613281 693.542969 598.859375 693.804688 598.074219 693.804688 C 597.28125 693.804688 596.472656 693.519531 595.75 693.082031 L 592.070312 690.863281 C 591.554688 691.128906 591.023438 691.375 590.488281 691.59375 C 589.945312 691.820312 589.398438 692.019531 588.847656 692.195312 L 587.824219 696.347656 C 587.621094 697.164062 587.253906 697.9375 586.691406 698.496094 C 586.132812 699.050781 585.417969 699.394531 584.523438 699.394531 L 580.417969 699.394531 C 579.523438 699.394531 578.804688 699.050781 578.25 698.496094 C 577.6875 697.9375 577.316406 697.164062 577.117188 696.347656 L 576.09375 692.195312 C 575.535156 692.019531 574.992188 691.820312 574.457031 691.597656 C 573.921875 691.378906 573.390625 691.132812 572.867188 690.863281 L 569.191406 693.082031 C 568.46875 693.519531 567.660156 693.804688 566.867188 693.804688 C 566.078125 693.804688 565.328125 693.542969 564.695312 692.914062 L 561.792969 690.027344 C 561.160156 689.398438 560.898438 688.648438 560.898438 687.863281 C 560.898438 687.074219 561.183594 686.273438 561.621094 685.554688 L 563.851562 681.894531 C 563.585938 681.378906 563.339844 680.851562 563.117188 680.316406 C 562.894531 679.777344 562.691406 679.230469 562.515625 678.683594 L 558.339844 677.667969 C 557.519531 677.464844 556.746094 677.101562 556.183594 676.539062 C 555.625 675.988281 555.277344 675.273438 555.277344 674.382812 L 555.277344 670.296875 C 555.277344 669.40625 555.625 668.695312 556.183594 668.140625 C 556.746094 667.582031 557.519531 667.214844 558.339844 667.015625 L 562.515625 665.996094 C 562.691406 665.441406 562.894531 664.898438 563.113281 664.367188 C 563.335938 663.832031 563.582031 663.308594 563.851562 662.789062 Z M 563.617188 657.925781 L 566.160156 662.101562 C 566.402344 662.453125 566.4375 662.921875 566.214844 663.320312 C 565.871094 663.9375 565.554688 664.582031 565.273438 665.257812 C 565 665.917969 564.761719 666.589844 564.566406 667.28125 C 564.453125 667.671875 564.140625 667.992188 563.714844 668.09375 L 558.890625 669.273438 C 558.464844 669.375 558.082031 669.546875 557.839844 669.789062 C 557.703125 669.921875 557.621094 670.089844 557.621094 670.296875 L 557.621094 674.382812 C 557.621094 674.589844 557.703125 674.761719 557.839844 674.894531 C 558.082031 675.136719 558.464844 675.304688 558.890625 675.410156 L 563.660156 676.574219 C 564.082031 676.652344 564.441406 676.960938 564.566406 677.402344 C 564.765625 678.09375 565 678.773438 565.277344 679.433594 C 565.550781 680.089844 565.863281 680.734375 566.214844 681.363281 C 566.410156 681.714844 566.417969 682.160156 566.191406 682.527344 L 563.617188 686.753906 C 563.386719 687.128906 563.238281 687.519531 563.238281 687.863281 C 563.238281 688.054688 563.300781 688.230469 563.445312 688.378906 L 566.351562 691.265625 C 566.496094 691.414062 566.675781 691.476562 566.867188 691.476562 C 567.214844 691.476562 567.605469 691.324219 567.980469 691.097656 L 572.179688 688.566406 C 572.53125 688.328125 573.003906 688.292969 573.402344 688.511719 C 574.023438 688.855469 574.671875 689.171875 575.351562 689.449219 C 576.011719 689.722656 576.691406 689.957031 577.382812 690.152344 L 577.382812 690.15625 C 577.777344 690.265625 578.097656 690.578125 578.203125 691 L 579.386719 695.800781 C 579.488281 696.226562 579.660156 696.605469 579.902344 696.847656 C 580.039062 696.980469 580.207031 697.0625 580.417969 697.0625 L 584.523438 697.0625 C 584.730469 697.0625 584.902344 696.980469 585.035156 696.847656 C 585.277344 696.605469 585.449219 696.226562 585.554688 695.800781 L 586.722656 691.058594 C 586.804688 690.636719 587.113281 690.277344 587.554688 690.152344 C 588.253906 689.957031 588.9375 689.71875 589.601562 689.449219 C 590.257812 689.175781 590.90625 688.863281 591.539062 688.515625 C 591.894531 688.320312 592.339844 688.3125 592.710938 688.535156 L 596.957031 691.097656 C 597.332031 691.324219 597.726562 691.476562 598.070312 691.476562 C 598.261719 691.476562 598.441406 691.414062 598.589844 691.269531 L 601.492188 688.378906 C 601.640625 688.230469 601.699219 688.054688 601.699219 687.863281 C 601.699219 687.519531 601.550781 687.128906 601.324219 686.753906 L 598.777344 682.578125 C 598.539062 682.226562 598.503906 681.757812 598.722656 681.363281 C 599.070312 680.746094 599.386719 680.097656 599.667969 679.421875 C 599.941406 678.765625 600.175781 678.089844 600.375 677.402344 C 600.484375 677.011719 600.800781 676.6875 601.222656 676.585938 L 606.050781 675.410156 C 606.476562 675.304688 606.859375 675.136719 607.101562 674.894531 C 607.234375 674.761719 607.320312 674.589844 607.320312 674.382812 L 607.320312 670.296875 C 607.320312 670.089844 607.234375 669.921875 607.101562 669.789062 C 606.859375 669.546875 606.476562 669.375 606.050781 669.273438 L 601.28125 668.109375 C 600.859375 668.027344 600.496094 667.71875 600.371094 667.28125 C 600.175781 666.585938 599.9375 665.90625 599.664062 665.246094 C 599.390625 664.589844 599.078125 663.945312 598.726562 663.316406 C 598.53125 662.964844 598.523438 662.519531 598.746094 662.152344 L 601.324219 657.925781 C 601.550781 657.550781 601.699219 657.160156 601.699219 656.816406 C 601.699219 656.628906 601.640625 656.449219 601.492188 656.300781 L 598.589844 653.414062 C 598.441406 653.265625 598.261719 653.207031 598.070312 653.207031 C 597.726562 653.207031 597.332031 653.355469 596.957031 653.582031 L 592.761719 656.113281 C 592.40625 656.351562 591.9375 656.390625 591.539062 656.167969 C 590.917969 655.824219 590.265625 655.511719 589.585938 655.230469 C 588.925781 654.957031 588.25 654.722656 587.554688 654.527344 C 587.164062 654.417969 586.839844 654.105469 586.738281 653.679688 L 585.554688 648.878906 C 585.449219 648.457031 585.277344 648.074219 585.035156 647.832031 C 584.902344 647.699219 584.730469 647.617188 584.523438 647.617188 L 580.417969 647.617188 C 580.207031 647.617188 580.039062 647.699219 579.902344 647.832031 C 579.660156 648.074219 579.488281 648.457031 579.386719 648.878906 L 578.214844 653.625 C 578.136719 654.046875 577.824219 654.40625 577.382812 654.527344 C 576.683594 654.726562 576.003906 654.960938 575.339844 655.234375 C 574.679688 655.503906 574.035156 655.816406 573.402344 656.167969 C 573.046875 656.363281 572.601562 656.367188 572.230469 656.144531 L 567.980469 653.582031 C 567.605469 653.355469 567.214844 653.207031 566.867188 653.207031 C 566.675781 653.207031 566.496094 653.265625 566.351562 653.414062 L 563.445312 656.300781 C 563.300781 656.449219 563.238281 656.628906 563.238281 656.816406 C 563.238281 657.160156 563.386719 657.550781 563.617188 657.925781 Z M 582.46875 658.027344 C 578.496094 658.027344 574.902344 659.628906 572.296875 662.21875 C 569.695312 664.808594 568.082031 668.386719 568.082031 672.339844 C 568.082031 676.292969 569.695312 679.871094 572.296875 682.460938 C 574.902344 685.050781 578.496094 686.652344 582.46875 686.652344 C 586.441406 686.652344 590.039062 685.050781 592.640625 682.460938 C 595.246094 679.871094 596.855469 676.292969 596.855469 672.339844 C 596.855469 668.386719 595.246094 664.808594 592.640625 662.21875 C 590.039062 659.628906 586.441406 658.027344 582.46875 658.027344 Z M 590.988281 663.867188 C 588.808594 661.699219 585.796875 660.355469 582.46875 660.355469 C 579.144531 660.355469 576.132812 661.699219 573.953125 663.867188 C 571.773438 666.035156 570.425781 669.03125 570.425781 672.339844 C 570.425781 675.648438 571.773438 678.644531 573.953125 680.8125 C 576.132812 682.984375 579.144531 684.324219 582.46875 684.324219 C 585.796875 684.324219 588.808594 682.984375 590.988281 680.8125 C 593.164062 678.644531 594.515625 675.648438 594.515625 672.339844 C 594.515625 669.03125 593.164062 666.035156 590.988281 663.867188 Z M 506.503906 693.082031 C 506.105469 693.832031 505.742188 694.597656 505.417969 695.375 C 505.097656 696.148438 504.808594 696.9375 504.558594 697.746094 L 498.722656 699.171875 C 497.6875 699.421875 496.710938 699.882812 496.007812 700.578125 C 495.332031 701.253906 494.910156 702.121094 494.910156 703.199219 L 494.910156 708.695312 C 494.910156 709.773438 495.332031 710.640625 496.007812 711.3125 C 496.710938 712.011719 497.6875 712.46875 498.722656 712.722656 L 504.558594 714.144531 C 504.808594 714.945312 505.097656 715.738281 505.425781 716.527344 C 505.746094 717.300781 506.105469 718.066406 506.503906 718.8125 L 503.382812 723.929688 C 502.832031 724.835938 502.46875 725.847656 502.46875 726.828125 C 502.46875 727.78125 502.785156 728.691406 503.554688 729.453125 L 507.460938 733.339844 C 508.226562 734.101562 509.140625 734.417969 510.097656 734.417969 C 511.085938 734.417969 512.101562 734.058594 513.011719 733.507812 L 518.15625 730.40625 C 518.910156 730.800781 519.679688 731.160156 520.460938 731.484375 C 521.238281 731.804688 522.03125 732.089844 522.847656 732.339844 L 524.277344 738.148438 C 524.53125 739.179688 524.992188 740.148438 525.691406 740.847656 C 526.367188 741.519531 527.238281 741.9375 528.324219 741.9375 L 533.847656 741.9375 C 534.933594 741.9375 535.804688 741.519531 536.480469 740.847656 C 537.179688 740.148438 537.644531 739.179688 537.894531 738.148438 L 539.328125 732.339844 C 540.128906 732.089844 540.929688 731.804688 541.71875 731.476562 C 542.5 731.15625 543.265625 730.800781 544.019531 730.40625 L 549.160156 733.507812 C 550.070312 734.058594 551.085938 734.417969 552.074219 734.417969 C 553.03125 734.417969 553.945312 734.101562 554.714844 733.339844 L 558.617188 729.453125 C 559.386719 728.691406 559.703125 727.78125 559.703125 726.828125 C 559.703125 725.847656 559.339844 724.835938 558.789062 723.929688 L 555.667969 718.8125 C 556.066406 718.0625 556.429688 717.296875 556.753906 716.519531 C 557.074219 715.746094 557.363281 714.953125 557.617188 714.144531 L 563.449219 712.722656 C 564.488281 712.46875 565.464844 712.007812 566.164062 711.3125 C 566.839844 710.640625 567.261719 709.773438 567.261719 708.695312 L 567.261719 703.199219 C 567.261719 702.121094 566.839844 701.253906 566.164062 700.578125 C 565.464844 699.882812 564.488281 699.421875 563.449219 699.171875 L 557.613281 697.746094 C 557.363281 696.949219 557.074219 696.152344 556.75 695.367188 C 556.425781 694.589844 556.066406 693.828125 555.671875 693.078125 L 558.789062 687.964844 C 559.339844 687.058594 559.703125 686.046875 559.703125 685.0625 C 559.703125 684.109375 559.386719 683.203125 558.617188 682.4375 L 554.714844 678.550781 C 553.945312 677.789062 553.03125 677.472656 552.074219 677.472656 C 551.085938 677.472656 550.070312 677.835938 549.160156 678.382812 L 544.015625 681.488281 C 543.261719 681.089844 542.492188 680.730469 541.710938 680.410156 C 540.933594 680.089844 540.140625 679.800781 539.328125 679.550781 L 537.898438 673.746094 C 537.644531 672.714844 537.179688 671.742188 536.480469 671.046875 C 535.804688 670.371094 534.933594 669.953125 533.847656 669.953125 L 528.324219 669.953125 C 527.238281 669.953125 526.371094 670.371094 525.691406 671.046875 C 524.992188 671.742188 524.53125 672.714844 524.277344 673.746094 L 522.847656 679.554688 C 522.042969 679.800781 521.246094 680.089844 520.453125 680.414062 C 519.675781 680.734375 518.90625 681.09375 518.15625 681.484375 L 513.011719 678.382812 C 512.101562 677.835938 511.085938 677.472656 510.097656 677.472656 C 509.140625 677.472656 508.226562 677.789062 507.460938 678.550781 L 503.554688 682.4375 C 502.789062 683.203125 502.46875 684.109375 502.46875 685.0625 C 502.46875 686.046875 502.832031 687.058594 503.386719 687.964844 Z M 505.378906 686.761719 L 508.8125 692.398438 C 509.050781 692.75 509.089844 693.21875 508.867188 693.613281 C 508.394531 694.460938 507.960938 695.347656 507.578125 696.265625 C 507.203125 697.164062 506.878906 698.085938 506.613281 699.03125 L 506.609375 699.03125 C 506.5 699.421875 506.1875 699.742188 505.761719 699.84375 L 499.269531 701.429688 C 498.628906 701.585938 498.046875 701.847656 497.664062 702.226562 C 497.410156 702.480469 497.253906 702.800781 497.253906 703.199219 L 497.253906 708.695312 C 497.253906 709.089844 497.410156 709.414062 497.664062 709.664062 C 498.046875 710.046875 498.628906 710.308594 499.269531 710.464844 L 505.707031 712.035156 C 506.128906 712.113281 506.488281 712.421875 506.613281 712.863281 C 506.882812 713.808594 507.207031 714.738281 507.582031 715.644531 C 507.957031 716.539062 508.382812 717.417969 508.867188 718.277344 L 508.863281 718.28125 C 509.0625 718.632812 509.066406 719.074219 508.84375 719.445312 L 505.378906 725.128906 C 505.035156 725.691406 504.808594 726.289062 504.808594 726.828125 C 504.808594 727.1875 504.925781 727.527344 505.207031 727.804688 L 509.113281 731.691406 C 509.398438 731.972656 509.738281 732.089844 510.097656 732.089844 C 510.636719 732.089844 511.238281 731.863281 511.804688 731.523438 L 517.46875 728.105469 C 517.820312 727.867188 518.292969 727.832031 518.691406 728.050781 C 519.542969 728.523438 520.429688 728.953125 521.355469 729.335938 C 522.257812 729.707031 523.1875 730.03125 524.132812 730.296875 C 524.527344 730.40625 524.851562 730.71875 524.953125 731.144531 L 526.542969 737.601562 C 526.699219 738.238281 526.964844 738.820312 527.347656 739.199219 C 527.601562 739.453125 527.925781 739.609375 528.324219 739.609375 L 533.847656 739.609375 C 534.246094 739.609375 534.570312 739.453125 534.824219 739.199219 C 535.207031 738.820312 535.46875 738.238281 535.628906 737.601562 L 537.203125 731.199219 C 537.285156 730.777344 537.59375 730.417969 538.035156 730.292969 C 538.988281 730.027344 539.921875 729.703125 540.832031 729.332031 C 541.730469 728.960938 542.617188 728.535156 543.480469 728.054688 C 543.835938 727.859375 544.28125 727.851562 544.652344 728.078125 L 550.367188 731.523438 C 550.933594 731.863281 551.53125 732.089844 552.074219 732.089844 C 552.433594 732.089844 552.773438 731.972656 553.054688 731.691406 L 556.960938 727.804688 C 557.246094 727.527344 557.359375 727.1875 557.359375 726.828125 C 557.359375 726.289062 557.136719 725.691406 556.792969 725.128906 L 553.359375 719.496094 C 553.117188 719.144531 553.082031 718.675781 553.304688 718.277344 C 553.777344 717.433594 554.210938 716.546875 554.59375 715.625 C 554.96875 714.726562 555.289062 713.804688 555.558594 712.863281 L 555.5625 712.863281 C 555.671875 712.472656 555.984375 712.148438 556.410156 712.046875 L 562.902344 710.464844 C 563.542969 710.308594 564.125 710.046875 564.507812 709.664062 C 564.761719 709.414062 564.917969 709.089844 564.917969 708.695312 L 564.917969 703.199219 C 564.917969 702.800781 564.761719 702.480469 564.507812 702.226562 C 564.125 701.847656 563.542969 701.585938 562.902344 701.429688 L 556.464844 699.859375 C 556.042969 699.777344 555.679688 699.46875 555.558594 699.03125 C 555.289062 698.082031 554.964844 697.15625 554.589844 696.25 C 554.214844 695.355469 553.789062 694.472656 553.304688 693.613281 C 553.109375 693.261719 553.105469 692.816406 553.328125 692.449219 L 556.792969 686.761719 C 557.136719 686.199219 557.363281 685.601562 557.363281 685.0625 C 557.363281 684.707031 557.246094 684.367188 556.960938 684.085938 L 553.054688 680.199219 C 552.773438 679.917969 552.433594 679.804688 552.074219 679.804688 C 551.53125 679.804688 550.933594 680.027344 550.367188 680.367188 L 544.703125 683.785156 C 544.351562 684.023438 543.878906 684.0625 543.480469 683.839844 C 542.628906 683.367188 541.738281 682.9375 540.816406 682.558594 C 539.914062 682.183594 538.984375 681.863281 538.035156 681.597656 L 538.039062 681.59375 C 537.644531 681.484375 537.320312 681.171875 537.21875 680.75 L 535.628906 674.292969 C 535.46875 673.652344 535.207031 673.074219 534.824219 672.695312 C 534.570312 672.441406 534.246094 672.285156 533.847656 672.285156 L 528.324219 672.285156 C 527.925781 672.285156 527.601562 672.441406 527.347656 672.695312 C 526.964844 673.074219 526.703125 673.652344 526.542969 674.292969 L 524.96875 680.695312 C 524.886719 681.113281 524.578125 681.472656 524.132812 681.597656 C 523.183594 681.867188 522.25 682.1875 521.339844 682.5625 C 520.4375 682.933594 519.554688 683.359375 518.691406 683.839844 L 518.6875 683.835938 C 518.335938 684.03125 517.890625 684.039062 517.519531 683.816406 L 511.804688 680.367188 C 511.238281 680.027344 510.640625 679.804688 510.097656 679.804688 C 509.738281 679.804688 509.398438 679.921875 509.113281 680.199219 L 505.210938 684.085938 C 504.925781 684.367188 504.808594 684.707031 504.808594 685.0625 C 504.808594 685.601562 505.035156 686.199219 505.378906 686.761719 Z M 541.40625 695.675781 C 538.765625 693.050781 535.117188 691.425781 531.085938 691.425781 C 527.054688 691.425781 523.40625 693.050781 520.765625 695.675781 C 518.125 698.304688 516.488281 701.9375 516.488281 705.945312 C 516.488281 709.957031 518.125 713.585938 520.765625 716.214844 C 523.40625 718.84375 527.054688 720.46875 531.085938 720.46875 C 535.117188 720.46875 538.765625 718.84375 541.40625 716.214844 C 544.046875 713.585938 545.683594 709.957031 545.683594 705.945312 C 545.683594 701.9375 544.046875 698.304688 541.40625 695.675781 Z M 541.40625 695.675781 "  fill-rule="evenodd"/></g><g transform="matrix(1, 0, 0, 1, 609, 650)"><g clip-path="url(#d6964ade3d)"><g fill="currentColor" ><g transform="translate(0.365832, 143.866518)"><g><path d="M 15.09375 0 L 3.28125 0 L 25.65625 -37.53125 L 4.390625 -72.375 L 16.46875 -72.375 L 33.203125 -44.5625 L 34.71875 -44.5625 L 51.515625 -72.375 L 63.0625 -72.375 L 42.328125 -37.53125 L 64.171875 0 L 52.109375 0 L 34.25 -30.578125 L 32.75 -30.578125 Z M 15.09375 0 "/></g></g></g><g fill="currentColor" ><g transform="translate(67.818866, 143.866518)"><g><path d="M 28.8125 1.375 C 23.6875 1.375 19.660156 -0.078125 16.734375 -2.984375 C 13.804688 -5.890625 12.34375 -10.234375 12.34375 -16.015625 L 12.34375 -101.453125 L 23.03125 -101.453125 L 23.03125 -16.734375 C 23.03125 -13.710938 23.609375 -11.535156 24.765625 -10.203125 C 25.929688 -8.867188 27.738281 -8.203125 30.1875 -8.203125 C 31.675781 -8.203125 33.1875 -8.441406 34.71875 -8.921875 L 35.625 -8.65625 L 36.875 -0.265625 C 36.09375 0.265625 34.96875 0.671875 33.5 0.953125 C 32.03125 1.234375 30.46875 1.375 28.8125 1.375 Z M 28.8125 1.375 "/></g></g></g><g fill="currentColor" ><g transform="translate(107.188341, 143.866518)"><g><path d="M 86.359375 0 L 74.28125 0 L 65.421875 -26.3125 L 24.546875 -26.3125 L 15.625 0 L 3.8125 0 L 37.265625 -95.9375 L 52.890625 -95.9375 Z M 44.15625 -84.328125 L 27.6875 -35.765625 L 62.203125 -35.765625 L 45.796875 -84.328125 Z M 44.15625 -84.328125 "/></g></g></g><g fill="currentColor" ><g transform="translate(197.344439, 143.866518)"><g><path d="M 12.59375 0 L 12.59375 -72.375 L 22.765625 -72.375 L 22.765625 -61.03125 L 24.140625 -60.703125 C 27.515625 -68.921875 33.859375 -73.03125 43.171875 -73.03125 C 48.117188 -73.03125 51.816406 -72.132812 54.265625 -70.34375 L 51.515625 -61.296875 L 50.203125 -61.03125 C 47.484375 -62.382812 44.507812 -63.0625 41.28125 -63.0625 C 35.5 -63.0625 31.054688 -60.894531 27.953125 -56.5625 C 24.847656 -52.226562 23.296875 -45.207031 23.296875 -35.5 L 23.296875 0 Z M 12.59375 0 "/></g></g></g><g fill="currentColor" ><g transform="translate(251.346132, 143.866518)"><g><path d="M 41.53125 1.375 C 35.144531 1.375 29.414062 -0.078125 24.34375 -2.984375 C 19.269531 -5.890625 15.265625 -10.175781 12.328125 -15.84375 C 9.398438 -21.507812 7.9375 -28.28125 7.9375 -36.15625 C 7.9375 -44.070312 9.398438 -50.863281 12.328125 -56.53125 C 15.265625 -62.195312 19.269531 -66.484375 24.34375 -69.390625 C 29.414062 -72.296875 35.144531 -73.75 41.53125 -73.75 C 49.1875 -73.75 55.28125 -72.304688 59.8125 -69.421875 C 64.34375 -66.535156 67.613281 -62.6875 69.625 -57.875 L 62.34375 -52.625 L 61.03125 -52.625 C 59.0625 -56.601562 56.535156 -59.519531 53.453125 -61.375 C 50.367188 -63.238281 46.394531 -64.171875 41.53125 -64.171875 C 37.070312 -64.171875 33.15625 -63.117188 29.78125 -61.015625 C 26.414062 -58.921875 23.800781 -55.773438 21.9375 -51.578125 C 20.082031 -47.378906 19.15625 -42.238281 19.15625 -36.15625 C 19.15625 -30.113281 20.09375 -25.003906 21.96875 -20.828125 C 23.851562 -16.648438 26.46875 -13.5 29.8125 -11.375 C 33.164062 -9.257812 37.070312 -8.203125 41.53125 -8.203125 C 46.5625 -8.203125 50.726562 -9.335938 54.03125 -11.609375 C 57.34375 -13.890625 59.9375 -17.476562 61.8125 -22.375 L 63.1875 -22.375 L 70.21875 -18.25 C 68.332031 -12.164062 64.972656 -7.375 60.140625 -3.875 C 55.304688 -0.375 49.101562 1.375 41.53125 1.375 Z M 41.53125 1.375 "/></g></g></g><g fill="currentColor" ><g transform="translate(325.951297, 143.866518)"><g><path d="M 12.59375 0 L 12.59375 -101.453125 L 23.296875 -101.453125 L 23.296875 -62.078125 L 24.671875 -61.8125 C 29.835938 -69.769531 37.296875 -73.75 47.046875 -73.75 C 55.753906 -73.75 62.066406 -71.53125 65.984375 -67.09375 C 69.898438 -62.65625 71.859375 -55.820312 71.859375 -46.59375 L 71.859375 0 L 61.15625 0 L 61.15625 -46.328125 C 61.15625 -50.703125 60.597656 -54.210938 59.484375 -56.859375 C 58.367188 -59.503906 56.640625 -61.425781 54.296875 -62.625 C 51.960938 -63.832031 48.890625 -64.4375 45.078125 -64.4375 C 38.515625 -64.4375 33.242188 -62.3125 29.265625 -58.0625 C 25.285156 -53.820312 23.296875 -46.847656 23.296875 -37.140625 L 23.296875 0 Z M 12.59375 0 "/></g></g></g></g></g><path stroke-linecap="butt" transform="matrix(0.748733, 0.0435794, -0.0435794, 0.748733, 479.396296, 807.47451)" fill="none" stroke-linejoin="miter" d="M -0.00067086 2.000948 L 47.131103 2.001902 " stroke="currentColor" stroke-width="4"  stroke-miterlimit="4"/><path stroke-linecap="round" transform="matrix(0.748733, 0.0435794, -0.0435794, 0.748733, 479.396296, 807.47451)"  fill="currentColor" fill-rule="nonzero" stroke-linejoin="round" d="M 48.127882 -3.998446 L 56.130562 1.999811 L 48.127204 8.001035 Z M 48.127882 -3.998446 " stroke="currentColor" stroke-width="4"  stroke-miterlimit="4"/></svg>