<svg xmlns="http://www.w3.org/2000/svg" xmlns:xlink="http://www.w3.org/1999/xlink" width="1781" zoomAndPan="magnify" viewBox="0 0 1335.75 494.999988" height="660" preserveAspectRatio="xMidYMid meet" version="1.0"><defs><g/><clipPath id="da25446776"><path d="M 14 66 L 345 66 L 345 398 L 14 398 Z M 14 66 " clip-rule="nonzero"/></clipPath><clipPath id="fe6292ac82"><path d="M 181.015625 66.769531 L 344.859375 230.613281 L 178.367188 397.105469 L 14.523438 233.261719 Z M 181.015625 66.769531 " clip-rule="nonzero"/></clipPath><clipPath id="598d9989c7"><path d="M 13 21 L 311 21 L 311 319 L 13 319 Z M 13 21 " clip-rule="nonzero"/></clipPath><clipPath id="0490fac09f"><path d="M 167.015625 0.769531 L 330.859375 164.613281 L 164.367188 331.105469 L 0.523438 167.261719 Z M 167.015625 0.769531 " clip-rule="nonzero"/></clipPath><clipPath id="aebb3b2c55"><path d="M 330.957031 164.710938 L 167.117188 0.871094 L 0.625 167.363281 L 164.464844 331.203125 Z M 330.957031 164.710938 " clip-rule="nonzero"/></clipPath><clipPath id="1d431bae3f"><path d="M 330.957031 164.710938 L 167.117188 0.871094 L 0.625 167.363281 L 164.464844 331.203125 Z M 330.957031 164.710938 " clip-rule="nonzero"/></clipPath><clipPath id="da0d857fbc"><rect x="0" width="331" y="0" height="332"/></clipPath><clipPath id="141fd1e4a2"><path d="M 93 54.058594 L 134.976562 54.058594 L 134.976562 96 L 93 96 Z M 93 54.058594 " clip-rule="nonzero"/></clipPath><clipPath id="616a9cd254"><path d="M 0 147 L 42 147 L 42 189.035156 L 0 189.035156 Z M 0 147 " clip-rule="nonzero"/></clipPath></defs><g clip-path="url(#da25446776)"><g clip-path="url(#fe6292ac82)"><g transform="matrix(1, 0, 0, 1, 14, 66)"><g clip-path="url(#da0d857fbc)"><g clip-path="url(#598d9989c7)"><g clip-path="url(#0490fac09f)"><g clip-path="url(#aebb3b2c55)"><g clip-path="url(#1d431bae3f)"><path fill="#000000" d="M 153.671875 134.691406 L 155.195312 136.15625 C 155.957031 135.832031 156.746094 135.515625 157.5 135.210938 L 157.71875 135.121094 L 157.726562 133.1875 C 157.648438 131.25 158.378906 129.363281 159.730469 128.011719 C 161.082031 126.664062 162.96875 125.933594 164.671875 126.003906 L 171.242188 125.859375 C 175.105469 125.9375 178.183594 128.976562 178.265625 132.722656 L 178.355469 134.9375 C 179.152344 135.21875 180 135.582031 180.933594 136.046875 L 182.367188 134.558594 C 185.101562 131.824219 189.546875 131.820312 192.246094 134.515625 L 196.949219 139.078125 C 199.691406 141.820312 199.773438 146.164062 197.105469 148.976562 L 195.699219 150.441406 C 196.128906 151.289062 196.511719 152.222656 196.863281 153.167969 L 199.054688 153.160156 C 202.933594 153.242188 206.070312 156.394531 206.070312 160.101562 L 206.210938 166.683594 C 206.132812 170.535156 203.082031 173.625 199.238281 173.710938 L 197.1875 173.742188 L 197.03125 173.996094 C 196.78125 174.683594 196.507812 175.398438 196.125 176.273438 L 197.113281 177.203125 L 197.542969 177.636719 C 200.34375 180.230469 200.519531 184.753906 197.75 187.6875 L 193.253906 192.257812 C 190.433594 195.078125 186.015625 195.078125 183.253906 192.316406 L 181.714844 190.835938 C 180.894531 191.25 180.015625 191.589844 179.214844 191.894531 L 179.175781 191.910156 L 179.203125 193.976562 C 179.203125 197.792969 176.101562 200.964844 172.167969 201.042969 L 165.933594 200.972656 C 164.066406 201.042969 162.296875 200.398438 160.957031 199.15625 C 159.652344 197.972656 158.769531 196.078125 158.691406 194.003906 L 158.664062 191.976562 C 157.984375 191.738281 157.355469 191.460938 156.757812 191.191406 C 156.527344 191.085938 156.304688 190.988281 155.914062 190.816406 L 154.5625 192.167969 C 151.851562 195.023438 147.480469 195.132812 144.578125 192.390625 L 139.867188 187.820312 C 137.09375 185.050781 137.066406 180.574219 139.800781 177.839844 L 141.210938 176.433594 L 140.886719 175.75 C 140.578125 175.105469 140.28125 174.476562 140.027344 173.800781 L 138.132812 173.734375 C 136.21875 173.8125 134.40625 173.109375 133.03125 171.753906 C 131.953125 170.503906 130.964844 168.726562 130.886719 166.796875 L 130.75 160.507812 C 130.675781 158.523438 131.4375 156.597656 132.84375 155.230469 C 134.203125 153.894531 136.074219 153.195312 137.746094 153.300781 L 139.730469 153.296875 C 139.964844 152.535156 140.234375 151.816406 140.484375 151.3125 C 140.53125 151.175781 140.59375 150.984375 140.6875 150.761719 L 139.171875 149.308594 C 136.417969 146.554688 136.40625 142.09375 139.105469 139.394531 L 143.601562 134.757812 C 146.347656 132.011719 150.640625 131.953125 153.671875 134.691406 Z M 144.878906 144.296875 L 146.304688 145.664062 C 148.425781 147.785156 149.007812 150.957031 147.679688 153.648438 L 147.496094 154.125 C 147.226562 154.714844 147.011719 155.304688 146.828125 155.984375 C 145.941406 158.9375 143.164062 160.941406 140.164062 160.863281 L 138.324219 160.859375 L 138.441406 166.183594 L 140.21875 166.25 C 143.359375 166.082031 146.183594 168.058594 147.035156 170.941406 C 147.199219 171.441406 147.453125 171.941406 147.703125 172.457031 L 148.105469 173.316406 C 149.472656 175.910156 149.015625 179.144531 146.863281 181.472656 L 145.546875 182.789062 L 149.457031 186.578125 L 150.855469 185.179688 C 152.996094 183.039062 156.347656 182.527344 158.601562 183.75 C 159.019531 183.910156 159.441406 184.101562 159.878906 184.296875 C 160.347656 184.507812 160.839844 184.738281 161.472656 184.9375 C 164.238281 185.867188 166.144531 188.488281 166.222656 191.5 L 166.253906 193.414062 L 171.632812 193.472656 L 171.605469 191.613281 C 171.527344 188.5625 173.46875 185.808594 176.539062 184.820312 C 177.207031 184.570312 177.953125 184.296875 178.761719 183.847656 C 181.375 182.546875 184.664062 183.097656 186.707031 185.140625 L 188.222656 186.59375 L 191.984375 182.777344 L 191.839844 182.632812 L 190.511719 181.378906 C 188.914062 179.78125 188.175781 177.636719 188.464844 175.621094 C 188.558594 174.789062 188.820312 173.976562 189.066406 173.589844 C 189.359375 172.902344 189.660156 172.152344 190.070312 171.066406 L 190.25 170.648438 C 191.214844 167.925781 193.71875 166.183594 196.671875 166.183594 L 198.636719 166.152344 L 198.519531 160.726562 L 195.847656 160.683594 C 193.03125 160.449219 190.738281 158.671875 189.886719 156.121094 C 189.59375 155.292969 189.242188 154.40625 188.820312 153.621094 C 187.398438 150.929688 187.882812 147.574219 189.9375 145.519531 L 191.277344 144.125 L 187.332031 140.296875 L 186.136719 141.542969 C 184.019531 143.839844 180.636719 144.4375 177.945312 143.015625 C 177.238281 142.652344 176.394531 142.242188 175.617188 142 C 172.667969 141.128906 170.648438 138.308594 170.804688 135.363281 L 170.726562 133.4375 L 165.285156 133.550781 L 165.28125 135.257812 C 165.445312 138.414062 163.496094 141.234375 160.894531 141.996094 L 160.335938 142.21875 C 159.546875 142.539062 158.714844 142.875 158.296875 143.03125 C 155.699219 144.503906 152.335938 143.988281 150.183594 141.835938 C 150.183594 141.835938 150.183594 141.835938 150.179688 141.832031 L 148.671875 140.394531 Z M 52.972656 153.519531 C 54.984375 155.53125 56.472656 157.847656 57.59375 160.292969 L 112.101562 160.230469 C 112.804688 148.324219 117.234375 136.617188 125.433594 127.003906 L 105.082031 106.65625 C 102.582031 108.367188 99.5625 109.375 96.308594 109.375 C 92.011719 109.378906 88.117188 107.632812 85.300781 104.8125 C 82.476562 101.988281 80.730469 98.09375 80.734375 93.796875 C 80.738281 85.207031 87.730469 78.214844 96.324219 78.207031 C 104.910156 78.203125 111.902344 85.1875 111.902344 93.785156 C 111.902344 96.378906 111.203125 98.789062 110.074219 100.945312 L 130.734375 121.601562 C 140.28125 113.039062 152.027344 108.28125 164.046875 107.367188 L 164.0625 67.804688 C 157.355469 68.4375 150.4375 66.304688 145.3125 61.179688 C 136.191406 52.058594 136.195312 37.210938 145.324219 28.082031 C 154.453125 18.953125 169.300781 18.949219 178.421875 28.070312 C 187.542969 37.191406 187.535156 52.035156 178.40625 61.164062 C 176.394531 63.179688 174.074219 64.667969 171.628906 65.796875 L 171.609375 107.316406 C 183.753906 108.015625 195.675781 112.605469 205.382812 121.097656 L 224.78125 101.703125 C 223.347656 99.308594 222.53125 96.589844 222.535156 93.730469 C 222.535156 89.566406 224.15625 85.652344 227.101562 82.707031 C 230.046875 79.761719 233.960938 78.136719 238.125 78.136719 C 246.445312 78.128906 253.710938 85.390625 253.699219 93.710938 C 253.699219 97.875 252.074219 101.789062 249.128906 104.734375 C 246.183594 107.679688 242.273438 109.304688 238.109375 109.304688 C 235.242188 109.304688 232.519531 108.488281 230.125 107.050781 L 210.730469 126.445312 C 219.214844 136.144531 223.804688 148.050781 224.507812 160.179688 L 266.050781 160.160156 C 267.175781 157.730469 268.660156 155.421875 270.660156 153.421875 C 279.789062 144.292969 294.636719 144.28125 303.753906 153.402344 C 312.875 162.523438 312.871094 177.375 303.742188 186.503906 C 294.613281 195.628906 279.765625 195.632812 270.644531 186.511719 C 265.511719 181.382812 263.378906 174.445312 264.027344 167.726562 L 224.460938 167.746094 C 223.554688 179.773438 218.792969 191.535156 210.222656 201.089844 L 230.894531 221.761719 C 233.089844 220.613281 235.515625 219.9375 238.066406 219.9375 C 246.394531 219.933594 253.652344 227.1875 253.640625 235.511719 C 253.640625 239.675781 252.015625 243.589844 249.074219 246.53125 C 246.125 249.480469 242.214844 251.101562 238.050781 251.101562 C 233.890625 251.105469 229.976562 249.488281 227.03125 246.542969 C 224.089844 243.601562 222.472656 239.691406 222.472656 235.527344 C 222.476562 232.351562 223.433594 229.328125 225.1875 226.761719 L 204.820312 206.394531 C 195.203125 214.597656 183.480469 219.03125 171.5625 219.726562 L 171.535156 274.230469 C 173.980469 275.355469 176.296875 276.84375 178.304688 278.855469 C 187.425781 287.972656 187.421875 302.824219 178.292969 311.949219 C 169.164062 321.078125 154.316406 321.085938 145.195312 311.964844 C 136.074219 302.84375 136.082031 287.996094 145.210938 278.867188 C 150.339844 273.742188 157.265625 271.597656 163.972656 272.226562 L 163.996094 219.683594 C 152.199219 218.796875 140.664062 214.210938 131.222656 205.953125 L 109.574219 227.601562 C 110.984375 229.945312 111.84375 232.65625 111.84375 235.582031 C 111.84375 239.746094 110.21875 243.660156 107.273438 246.605469 C 104.328125 249.550781 100.414062 251.171875 96.253906 251.171875 C 91.953125 251.175781 88.058594 249.429688 85.238281 246.609375 C 82.417969 243.789062 80.671875 239.894531 80.675781 235.59375 C 80.679688 227.003906 87.675781 220.011719 96.265625 220.003906 C 99.183594 220.003906 101.886719 220.859375 104.222656 222.257812 L 125.875 200.605469 C 117.609375 191.152344 113.023438 179.601562 112.144531 167.792969 L 59.597656 167.851562 C 60.230469 174.558594 58.085938 181.484375 52.957031 186.613281 C 43.828125 195.742188 28.984375 195.75 19.863281 186.628906 C 10.742188 177.511719 10.746094 162.660156 19.875 153.53125 C 29.003906 144.40625 43.851562 144.398438 52.972656 153.519531 Z M 104.335938 93.789062 C 104.339844 89.371094 100.746094 85.773438 96.320312 85.769531 C 91.902344 85.777344 88.300781 89.375 88.296875 93.792969 C 88.300781 98.21875 91.898438 101.8125 96.3125 101.8125 C 100.734375 101.808594 104.335938 98.210938 104.335938 93.789062 Z M 173.070312 33.421875 C 166.898438 27.25 156.847656 27.253906 150.671875 33.429688 C 144.492188 39.609375 144.492188 49.65625 150.664062 55.828125 C 156.835938 62 166.882812 61.996094 173.058594 55.820312 C 179.238281 49.640625 179.242188 39.59375 173.070312 33.421875 Z M 275.996094 181.160156 C 282.167969 187.332031 292.21875 187.332031 298.394531 181.15625 C 304.574219 174.976562 304.574219 164.925781 298.402344 158.753906 C 292.230469 152.582031 282.1875 152.589844 276.007812 158.765625 C 269.832031 164.945312 269.824219 174.988281 275.996094 181.160156 Z M 230.039062 235.523438 C 230.035156 239.816406 233.777344 243.539062 238.050781 243.539062 C 240.195312 243.539062 242.210938 242.703125 243.726562 241.1875 C 245.238281 239.671875 246.074219 237.660156 246.074219 235.515625 C 246.078125 233.375 245.246094 231.359375 243.730469 229.847656 C 242.21875 228.335938 240.207031 227.5 238.0625 227.5 C 235.917969 227.5 233.90625 228.335938 232.390625 229.851562 C 230.875 231.367188 230.039062 233.378906 230.039062 235.523438 Z M 150.558594 284.214844 C 144.382812 290.394531 144.375 300.4375 150.546875 306.613281 C 156.71875 312.785156 166.769531 312.78125 172.945312 306.601562 C 179.125 300.425781 179.125 290.378906 172.953125 284.207031 C 166.78125 278.035156 156.738281 278.039062 150.558594 284.214844 Z M 238.113281 101.738281 C 240.253906 101.738281 242.269531 100.902344 243.78125 99.390625 C 245.296875 97.875 246.136719 95.859375 246.132812 93.714844 C 246.136719 91.574219 245.304688 89.5625 243.789062 88.046875 C 242.273438 86.53125 240.261719 85.699219 238.121094 85.703125 C 235.976562 85.703125 233.964844 86.539062 232.449219 88.054688 C 230.933594 89.566406 230.097656 91.582031 230.097656 93.726562 C 230.09375 98.003906 233.832031 101.746094 238.113281 101.738281 Z M 96.261719 227.570312 C 91.839844 227.574219 88.242188 231.171875 88.238281 235.589844 C 88.238281 240.019531 91.835938 243.613281 96.253906 243.609375 C 98.398438 243.609375 100.414062 242.773438 101.925781 241.257812 C 103.441406 239.742188 104.277344 237.730469 104.277344 235.585938 C 104.277344 231.160156 100.679688 227.5625 96.261719 227.570312 Z M 133.765625 198.0625 C 152.792969 217.089844 183.765625 217.074219 202.808594 198.03125 C 221.855469 178.988281 221.867188 148.011719 202.839844 128.988281 C 183.8125 109.960938 152.839844 109.972656 133.796875 129.015625 C 114.75 148.0625 114.738281 179.035156 133.765625 198.0625 Z M 25.214844 181.277344 C 31.386719 187.449219 41.433594 187.445312 47.609375 181.265625 C 53.789062 175.089844 53.792969 165.042969 47.621094 158.871094 C 41.449219 152.699219 31.402344 152.703125 25.222656 158.878906 C 19.046875 165.058594 19.042969 175.105469 25.214844 181.277344 Z M 177.902344 153.585938 C 177.9375 153.621094 177.972656 153.65625 178.011719 153.695312 C 183.464844 159.148438 183.566406 167.980469 178.207031 173.449219 C 175.589844 176.125 172.074219 177.605469 168.3125 177.617188 C 164.570312 177.632812 161.035156 176.191406 158.347656 173.558594 C 158.3125 173.523438 158.277344 173.488281 158.238281 173.453125 C 152.785156 167.996094 152.683594 159.164062 158.039062 153.695312 C 160.660156 151.023438 164.171875 149.539062 167.9375 149.53125 C 171.675781 149.515625 175.214844 150.953125 177.902344 153.585938 Z M 163.59375 168.101562 C 163.609375 168.117188 163.625 168.132812 163.644531 168.152344 C 164.902344 169.386719 166.554688 170.058594 168.292969 170.054688 C 170.015625 170.046875 171.617188 169.375 172.804688 168.160156 C 175.265625 165.652344 175.191406 161.578125 172.65625 159.042969 C 172.640625 159.027344 172.625 159.011719 172.605469 158.992188 C 171.347656 157.757812 169.695312 157.085938 167.957031 157.09375 C 166.234375 157.101562 164.632812 157.769531 163.441406 158.988281 C 160.984375 161.496094 161.058594 165.570312 163.59375 168.101562 Z M 163.59375 168.101562 " fill-opacity="1" fill-rule="nonzero"/></g></g></g></g></g></g></g></g><g fill="#000000" fill-opacity="1"><g transform="translate(285.582763, 333.635334)"><g/></g></g><g fill="#000000" fill-opacity="1"><g transform="translate(354.933062, 333.635334)"><g><path d="M -2.371094 -2.683594 L 44.304688 -69.347656 L 48.140625 -66.664062 L 44.328125 -63.949219 L -5.667969 -134.109375 L 47.769531 -134.109375 L 72.0625 -96.375 L 68.128906 -93.84375 L 64.253906 -96.46875 L 89.777344 -134.109375 L 141.582031 -134.109375 L 92.410156 -65.402344 L 88.601562 -68.128906 L 92.429688 -70.820312 L 145.511719 4.679688 L 91.925781 4.679688 L 64.214844 -37.527344 L 68.128906 -40.097656 L 72.027344 -37.511719 L 44.070312 4.679688 L -7.527344 4.679688 Z M 5.296875 2.683594 L 1.460938 0 L 1.460938 -4.679688 L 41.558594 -4.679688 L 41.558594 0 L 37.65625 -2.585938 L 68.144531 -48.597656 L 98.363281 -2.570312 L 94.453125 0 L 94.453125 -4.679688 L 136.5 -4.679688 L 136.5 0 L 132.671875 2.691406 L 82.863281 -68.152344 L 128.671875 -132.152344 L 132.476562 -129.429688 L 132.476562 -124.75 L 92.257812 -124.75 L 92.257812 -129.429688 L 96.132812 -126.804688 L 68.027344 -85.355469 L 41.28125 -126.898438 L 45.214844 -129.429688 L 45.214844 -124.75 L 3.414062 -124.75 L 3.414062 -129.429688 L 7.222656 -132.144531 L 53.871094 -66.6875 Z M 5.296875 2.683594 "/></g></g></g><g fill="#000000" fill-opacity="1"><g transform="translate(493.74772, 333.635334)"><g><path d="M 13.234375 -183.347656 L 56.84375 -183.347656 L 56.84375 4.679688 L 13.234375 4.679688 Z M 22.59375 -173.988281 L 22.59375 -4.679688 L 47.480469 -4.679688 L 47.480469 -173.988281 Z M 22.59375 -173.988281 "/></g></g></g><g fill="#000000" fill-opacity="1"><g transform="translate(563.094118, 333.635334)"><g><path d="M 179.277344 4.679688 L 136.820312 4.679688 L 120.066406 -38.90625 L 124.433594 -40.585938 L 124.433594 -35.902344 L 53.015625 -35.902344 L 53.015625 -40.585938 L 57.414062 -38.984375 L 41.546875 4.679688 L -6.84375 4.679688 L 66.390625 -183.347656 L 110.902344 -183.347656 L 186.191406 4.679688 Z M 179.277344 -4.679688 L 179.277344 0 L 174.933594 1.738281 L 103.390625 -176.929688 L 107.738281 -178.667969 L 107.738281 -173.988281 L 69.589844 -173.988281 L 69.589844 -178.667969 L 73.949219 -176.96875 L 4.359375 1.699219 L 0 0 L 0 -4.679688 L 38.269531 -4.679688 L 38.269531 0 L 33.871094 -1.597656 L 49.738281 -45.265625 L 127.648438 -45.265625 L 144.402344 -1.679688 L 140.035156 0 L 140.035156 -4.679688 Z M 108.46875 -69.058594 L 83.847656 -135.359375 L 88.238281 -136.988281 L 92.632812 -135.386719 L 68.503906 -69.085938 L 64.105469 -70.6875 L 64.105469 -75.367188 L 112.855469 -75.367188 L 112.855469 -70.6875 Z M 119.585938 -66.007812 L 57.421875 -66.007812 L 88.191406 -150.550781 L 117.242188 -72.316406 Z M 119.585938 -66.007812 "/></g></g></g><g fill="#000000" fill-opacity="1"><g transform="translate(743.345974, 333.635334)"><g><path d="M 50.699219 4.679688 L 11.773438 4.679688 L 11.773438 -134.109375 L 52.941406 -134.109375 L 52.941406 -111.027344 L 48.261719 -111.027344 L 44.296875 -113.511719 C 50.113281 -122.804688 55.496094 -129.019531 60.4375 -132.160156 C 65.550781 -135.410156 71.324219 -137.035156 77.753906 -137.035156 C 86.414062 -137.035156 94.726562 -134.664062 102.695312 -129.917969 L 106 -127.949219 L 92.128906 -88.886719 L 87.15625 -92.109375 C 82.160156 -95.34375 77.644531 -96.964844 73.613281 -96.964844 C 69.90625 -96.964844 66.8125 -95.980469 64.332031 -94.015625 C 61.796875 -92.007812 59.710938 -88.039062 58.074219 -82.113281 C 56.277344 -75.617188 55.378906 -61.570312 55.378906 -39.976562 L 55.378906 4.679688 Z M 50.699219 -4.679688 L 50.699219 0 L 46.019531 0 L 46.019531 -39.976562 C 46.019531 -62.417969 47.03125 -77.292969 49.054688 -84.609375 C 51.234375 -92.496094 54.386719 -98.078125 58.515625 -101.351562 C 62.699219 -104.664062 67.730469 -106.324219 73.613281 -106.324219 C 79.492188 -106.324219 85.703125 -104.203125 92.242188 -99.964844 L 89.699219 -96.035156 L 85.289062 -97.601562 L 95.890625 -127.460938 L 100.300781 -125.894531 L 97.90625 -121.875 C 91.414062 -125.742188 84.695312 -127.675781 77.753906 -127.675781 C 73.136719 -127.675781 69.039062 -126.539062 65.457031 -124.261719 C 61.707031 -121.878906 57.296875 -116.640625 52.230469 -108.542969 L 43.582031 -94.734375 L 43.582031 -129.429688 L 48.261719 -129.429688 L 48.261719 -124.75 L 16.453125 -124.75 L 16.453125 -129.429688 L 21.132812 -129.429688 L 21.132812 0 L 16.453125 0 L 16.453125 -4.679688 Z M 50.699219 -4.679688 "/></g></g></g><g fill="#000000" fill-opacity="1"><g transform="translate(840.479661, 333.635334)"><g><path d="M 131.601562 -86.554688 L 93.183594 -79.621094 L 92.398438 -84.289062 C 91.449219 -89.910156 89.398438 -94.058594 86.246094 -96.734375 C 83.097656 -99.40625 78.886719 -100.742188 73.613281 -100.742188 C 66.511719 -100.742188 60.886719 -98.335938 56.742188 -93.53125 C 52.421875 -88.515625 50.261719 -79.683594 50.261719 -67.03125 C 50.261719 -52.785156 52.492188 -42.921875 56.949219 -37.445312 C 61.171875 -32.257812 66.890625 -29.664062 74.097656 -29.664062 C 79.410156 -29.664062 83.691406 -31.117188 86.949219 -34.023438 C 90.300781 -37.011719 92.730469 -42.496094 94.242188 -50.472656 L 95.09375 -54.988281 L 138.132812 -47.660156 L 137.042969 -42.839844 C 133.304688 -26.332031 126.050781 -13.796875 115.28125 -5.234375 C 104.515625 3.324219 90.261719 7.605469 72.515625 7.605469 C 52.238281 7.605469 36.007812 1.144531 23.832031 -11.78125 C 11.730469 -24.625 5.679688 -42.230469 5.679688 -64.59375 C 5.679688 -87.207031 11.753906 -104.917969 23.90625 -117.722656 C 36.121094 -130.597656 52.527344 -137.035156 73.125 -137.035156 C 89.902344 -137.035156 103.355469 -133.34375 113.480469 -125.960938 C 123.640625 -118.550781 130.902344 -107.386719 135.261719 -92.476562 L 136.722656 -87.480469 Z M 129.941406 -95.765625 L 130.769531 -91.160156 L 126.277344 -89.847656 C 122.515625 -102.722656 116.410156 -112.238281 107.964844 -118.398438 C 99.484375 -124.582031 87.871094 -127.675781 73.125 -127.675781 C 55.210938 -127.675781 41.066406 -122.210938 30.695312 -111.28125 C 20.257812 -100.28125 15.039062 -84.71875 15.039062 -64.59375 C 15.039062 -44.707031 20.242188 -29.242188 30.644531 -18.199219 C 40.972656 -7.238281 54.929688 -1.753906 72.515625 -1.753906 C 88.082031 -1.753906 100.394531 -5.355469 109.457031 -12.558594 C 118.507812 -19.757812 124.660156 -30.539062 127.914062 -44.90625 L 132.476562 -43.875 L 131.691406 -39.261719 L 98.054688 -44.988281 L 98.839844 -49.601562 L 103.4375 -48.734375 C 101.535156 -38.671875 98.117188 -31.441406 93.179688 -27.039062 C 88.148438 -22.546875 81.789062 -20.304688 74.097656 -20.304688 C 63.921875 -20.304688 55.785156 -24.046875 49.691406 -31.535156 C 43.832031 -38.734375 40.902344 -50.566406 40.902344 -67.03125 C 40.902344 -82.003906 43.820312 -92.871094 49.652344 -99.640625 C 55.664062 -106.613281 63.652344 -110.101562 73.613281 -110.101562 C 81.175781 -110.101562 87.40625 -108.023438 92.300781 -103.871094 C 97.191406 -99.722656 100.300781 -93.714844 101.625 -85.847656 L 97.011719 -85.066406 L 96.179688 -89.671875 Z M 129.941406 -95.765625 "/></g></g></g><g fill="#000000" fill-opacity="1"><g transform="translate(979.294357, 333.635334)"><g><path d="M 56.71875 -178.667969 L 56.71875 -112.976562 L 52.039062 -112.976562 L 48.484375 -116.019531 C 60.46875 -130.03125 74.855469 -137.035156 91.648438 -137.035156 C 100.214844 -137.035156 107.980469 -135.429688 114.9375 -132.21875 C 122.035156 -128.941406 127.429688 -124.6875 131.121094 -119.453125 C 134.699219 -114.378906 137.144531 -108.769531 138.457031 -102.617188 C 139.703125 -96.773438 140.324219 -87.875 140.324219 -75.925781 L 140.324219 4.679688 L 96.71875 4.679688 L 96.71875 -68.371094 C 96.71875 -81.402344 96.160156 -89.492188 95.039062 -92.640625 C 94.089844 -95.308594 92.414062 -97.429688 90 -99.007812 C 87.488281 -100.652344 84.21875 -101.472656 80.191406 -101.472656 C 75.390625 -101.472656 71.132812 -100.324219 67.417969 -98.027344 C 63.859375 -95.828125 61.234375 -92.445312 59.535156 -87.882812 C 57.65625 -82.84375 56.71875 -75.164062 56.71875 -64.835938 L 56.71875 4.679688 L 13.113281 4.679688 L 13.113281 -183.347656 L 56.71875 -183.347656 Z M 47.359375 -178.667969 L 52.039062 -178.667969 L 52.039062 -173.988281 L 17.792969 -173.988281 L 17.792969 -178.667969 L 22.472656 -178.667969 L 22.472656 0 L 17.792969 0 L 17.792969 -4.679688 L 52.039062 -4.679688 L 52.039062 0 L 47.359375 0 L 47.359375 -64.835938 C 47.359375 -76.285156 48.496094 -85.058594 50.761719 -91.148438 C 53.207031 -97.71875 57.121094 -102.664062 62.5 -105.988281 C 67.722656 -109.21875 73.621094 -110.832031 80.191406 -110.832031 C 86.078125 -110.832031 91.058594 -109.5 95.125 -106.839844 C 99.296875 -104.109375 102.207031 -100.421875 103.859375 -95.777344 C 105.339844 -91.613281 106.078125 -82.476562 106.078125 -68.371094 L 106.078125 0 L 101.398438 0 L 101.398438 -4.679688 L 135.644531 -4.679688 L 135.644531 0 L 130.964844 0 L 130.964844 -75.925781 C 130.964844 -87.21875 130.410156 -95.464844 129.300781 -100.667969 C 128.257812 -105.566406 126.3125 -110.03125 123.472656 -114.058594 C 120.746094 -117.925781 116.59375 -121.144531 111.015625 -123.71875 C 105.300781 -126.355469 98.84375 -127.675781 91.648438 -127.675781 C 77.730469 -127.675781 65.710938 -121.761719 55.597656 -109.933594 L 47.359375 -100.304688 Z M 47.359375 -178.667969 "/></g></g></g><path fill="#000000" d="M 58.738281 94.535156 L 63.289062 73.957031 C 64.175781 69.949219 69.886719 69.949219 70.773438 73.957031 L 75.324219 94.535156 C 77.394531 103.882812 84.695312 111.1875 94.046875 113.253906 L 114.621094 117.804688 C 118.628906 118.691406 118.628906 124.402344 114.621094 125.289062 L 94.046875 129.839844 C 84.695312 131.90625 77.394531 139.210938 75.324219 148.558594 L 70.773438 169.136719 C 69.886719 173.144531 64.175781 173.144531 63.289062 169.136719 L 58.738281 148.558594 C 56.671875 139.210938 49.371094 131.90625 40.019531 129.839844 L 19.441406 125.289062 C 15.4375 124.402344 15.4375 118.691406 19.441406 117.804688 L 40.019531 113.253906 C 49.371094 111.1875 56.671875 103.882812 58.738281 94.535156 Z M 58.738281 94.535156 " fill-opacity="1" fill-rule="nonzero"/><g clip-path="url(#141fd1e4a2)"><path fill="#000000" d="M 110.742188 62.855469 L 112.328125 55.675781 C 112.804688 53.519531 115.878906 53.519531 116.355469 55.675781 L 117.945312 62.855469 C 118.855469 66.96875 122.066406 70.179688 126.179688 71.089844 L 133.359375 72.679688 C 135.515625 73.15625 135.515625 76.230469 133.359375 76.707031 L 126.179688 78.292969 C 122.066406 79.203125 118.855469 82.414062 117.945312 86.53125 L 116.355469 93.707031 C 115.878906 95.863281 112.804688 95.863281 112.328125 93.707031 L 110.742188 86.53125 C 109.832031 82.414062 106.621094 79.203125 102.503906 78.292969 L 95.328125 76.707031 C 93.171875 76.230469 93.171875 73.15625 95.328125 72.679688 L 102.503906 71.089844 C 106.621094 70.179688 109.832031 66.96875 110.742188 62.855469 Z M 110.742188 62.855469 " fill-opacity="1" fill-rule="nonzero"/></g><g clip-path="url(#616a9cd254)"><path fill="#000000" d="M 17.03125 156.5625 L 18.621094 149.386719 C 19.097656 147.230469 22.167969 147.230469 22.644531 149.386719 L 24.234375 156.5625 C 25.144531 160.679688 28.355469 163.890625 32.472656 164.800781 L 39.648438 166.390625 C 41.804688 166.867188 41.804688 169.9375 39.648438 170.414062 L 32.472656 172.003906 C 28.355469 172.914062 25.144531 176.125 24.234375 180.238281 L 22.644531 187.417969 C 22.167969 189.574219 19.097656 189.574219 18.621094 187.417969 L 17.03125 180.238281 C 16.121094 176.125 12.910156 172.914062 8.792969 172.003906 L 1.617188 170.414062 C -0.539062 169.9375 -0.539062 166.867188 1.617188 166.390625 L 8.792969 164.800781 C 12.910156 163.890625 16.121094 160.679688 17.03125 156.5625 Z M 17.03125 156.5625 " fill-opacity="1" fill-rule="nonzero"/></g></svg>